<?xml version="1.0" encoding="UTF-8"?>
<!-- Created with Inkscape (http://www.inkscape.org/) -->
<svg width="210mm" height="297mm" version="1.1" viewBox="0 0 210 297" xmlns="http://www.w3.org/2000/svg" xmlns:cc="http://creativecommons.org/ns#" xmlns:dc="http://purl.org/dc/elements/1.1/" xmlns:rdf="http://www.w3.org/1999/02/22-rdf-syntax-ns#">
 <metadata>
  <rdf:RDF>
   <cc:Work rdf:about="">
    <dc:format>image/svg+xml</dc:format>
    <dc:type rdf:resource="http://purl.org/dc/dcmitype/StillImage"/>
    <dc:title/>
   </cc:Work>
  </rdf:RDF>
 </metadata>
 <g stroke-width=".74221">
  <path d="m-1.6253 148.83v-149.04h211.14v298.07h-211.14z" fill="#f5f7f6"/>
  <path d="m-1.6253 148.83v-149.04h211.14v298.07h-211.14zm82.258 83.612c-0.19941-0.70349-0.34743-0.49453-0.3774 0.5328-0.02711 0.92964 0.12051 1.4505 0.32809 1.1575 0.20757-0.29304 0.22976-1.0537 0.04929-1.6903zm22.027-70.433c8.093-1.967 15.839-3.8687 17.213-4.226 2.1934-0.5703 2.4744-0.91451 2.3005-2.8172-0.10901-1.1922-1.8514-15.51-3.872-31.817s-3.865-31.685-4.0988-34.172c-0.23376-2.4878-0.74019-4.496-1.1254-4.4626-0.3852 0.03337-8.4306 1.9441-17.879 4.246-15.683 3.8209-17.17 4.334-17.081 5.8919 0.05347 0.93862 0.43025 4.5837 0.83727 8.1001l0.74005 6.3936h10.778c10.008 0 10.86 0.12686 11.916 1.7751 1.5598 2.4333 1.4504 6.7005-0.23286 9.0768-1.2706 1.7938-2.0766 1.9582-11.031 2.2498-9.5046 0.30947-9.6552 0.345-9.3492 2.2047 0.17101 1.0396 1.0098 8.2396 1.864 16 2.3559 21.404 2.8945 25.133 3.6295 25.133 0.37142 0 7.2968-1.6094 15.39-3.5763zm-4.8209-46.911c0.1277-1.8189 7e-3 -3.307-0.26705-3.307-0.27458 0-0.47704 1.885-0.44992 4.1889 0.05428 4.6108 0.35755 4.2378 0.71697-0.88187zm4.1474 0.33591c-0.12577-0.51682-0.5838 0.12981-1.0178 1.4369-0.72934 2.1964-0.71201 2.2676 0.22867 0.93965 0.55981-0.7903 0.91493-1.8598 0.78916-2.3766zm-50.02-3.5106c0.99028-0.88693 7.6263-24.485 7.6263-27.12 0-1.0439-0.40817-2.3763-0.90705-2.9608-0.75067-0.87952-1.0855-0.48003-1.942 2.3172-0.56922 1.8589-1.0746 4.4322-1.1231 5.7184-0.04849 1.2861-0.26135 2.1885-0.47302 2.0051-0.65856-0.57034-4.4687 14.4-3.9605 15.561 0.29198 0.66695 0.22102 0.86768-0.18231 0.51578-0.37224-0.32479-0.94523 0.57762-1.3134 2.0684-0.55884 2.2631-0.50004 2.6426 0.40765 2.6311 0.58337-7e-3 1.4237-0.33863 1.8674-0.736zm-0.49435-6.2534c0-0.45641 0.27788-1.0723 0.61751-1.3686 0.3541-0.30896 0.45882 0.0451 0.2455 0.82982-0.41527 1.5278-0.86301 1.8073-0.86301 0.53879z" fill="#d7e9eb"/>
  <path d="m-1.6253 148.83v-149.04h211.14v298.07h-211.14zm158.67 82.455v-29.543h-106.19v59.085h106.19zm-80.196 1.7637c-0.97009-5.0928-2.0159-9.2596-2.3241-9.2596-0.30817 0-0.5603-0.79368-0.5603-1.7637 0-1.414 0.41645-1.7637 2.1-1.7637h2.1l2.3481 15.119 1.2841-7.3393c1.2549-7.1723 1.3296-7.3456 3.285-7.6156 1.6436-0.227 2.0009 0.0354 2.0009 1.4698 0 0.96037-0.27378 1.8784-0.60841 2.0401-0.33462 0.16167-1.3627 4.3616-2.2847 9.3331-1.6744 9.0288-1.6785 9.0392-3.6265 9.0392-1.948 0-1.9522-0.0104-3.714-9.2596zm14.895 7.2497c-3.1914-3.8755-3.1914-15.033 0-18.909 2.9293-3.5571 6.5682-2.0232 8.1106 3.4189 3.1751 11.203-2.5839 22.201-8.1106 15.49zm4.3519-2.9034c1.1345-1.6017 1.3491-9.225 0.33498-11.9-1.6673-4.398-4.0586 0.25136-3.5448 6.892 0.2423 3.1317 1.2816 6.394 2.037 6.394 0.10518 0 0.63296-0.6236 1.1728-1.3858zm34.815 4.1386c-0.45952-0.4112-0.74062-1.6949-0.62467-2.8526 0.15804-1.578 0.60176-2.1049 1.7725-2.1049s1.6144 0.52695 1.7725 2.1049c0.18026 1.7997-0.70618 3.6002-1.7725 3.6002-0.17178 0-0.6883-0.33643-1.1478-0.74762zm-25.713-1.871c0-0.97985 0.41644-1.7637 0.937-1.7637 0.7548 0 0.937-1.3718 0.937-7.055 0-4.1154-0.26028-7.055-0.62467-7.055-0.34357 0-0.62467 0.79369-0.62467 1.7637 0 1.1923-0.41644 1.7637-1.2852 1.7637-1.1214 0-1.2608-0.466-1.0932-3.6543l0.19209-3.6543 9.9947-0.1874 0.19209 3.748c0.16824 3.2828 0.0325 3.7479-1.0932 3.7479-0.86881 0-1.2852-0.57148-1.2852-1.7637 0-0.97005-0.2811-1.7637-0.62467-1.7637-0.36439 0-0.62467 2.9396-0.62467 7.055 0 5.6832 0.1822 7.055 0.937 7.055 0.52056 0 0.937 0.78389 0.937 1.7637 0 1.55-0.41644 1.7637-3.4357 1.7637-3.0192 0-3.4357-0.21378-3.4357-1.7637zm10.619 0.0356c0-1.0115 0.41025-1.7994 0.937-1.7994 0.75375 0 0.937-1.3613 0.937-6.9606 0-5.3737-0.21362-7.0763-0.937-7.4682-0.51535-0.27918-0.937-1.3137-0.937-2.299 0-1.6514 0.39071-1.7914 4.9973-1.7914h4.9973v3.5275c0 2.9396-0.20822 3.5275-1.2493 3.5275-0.69408 0-1.2493-0.58791-1.2493-1.3228s-0.55526-1.3228-1.2493-1.3228c-0.91618 0-1.2493 0.58792-1.2493 2.2047 0 1.9317 0.27068 2.2047 2.1863 2.2047 1.7699 0 2.1863 0.33595 2.1863 1.7637 0 1.4278-0.41645 1.7637-2.1863 1.7637-2.0128 0-2.1863 0.20998-2.1863 2.6456 0 2.0577 0.27762 2.6456 1.2493 2.6456 0.71868 0 1.2493-0.58791 1.2493-1.3841 0-0.93099 0.46015-1.2919 1.4055-1.1023 1.1518 0.23093 1.4055 0.83889 1.4055 3.3683v3.0866l-5.1535 0.25613c-4.8304 0.24007-5.1535 0.14331-5.1535-1.5433zm14.761-8.1929c-0.20716-1.0913-0.3805-4.266-0.38519-7.055l-9e-3 -5.0708h1.9557c1.9124 0 1.9471 0.0734 1.5685 3.307-0.21295 1.8188-0.39028 4.9936-0.39406 7.055-6e-3 3.0792-0.21679 3.7479-1.1834 3.7479-0.69201 0-1.3316-0.81709-1.5531-1.9842zm30.434-52.997c-1.1994-3.9549-4.0193-13.427-6.2664-21.049l-4.0856-13.858-28.72-0.50324 0.37897 3.5275c0.20844 1.9401 0.55478 5.3917 0.76964 7.6701 0.44356 4.7035 1.1423 4.0965-7.2716 6.3164l-4.685 1.236 20.795 0.21021-0.0902 3.7479-0.0902 3.748h-55.595v-7.055l4.8228-0.25709c4.7227-0.25176 4.8311-0.21005 5.226 2.0111 0.27683 1.5571 0.72324 2.1367 1.4239 1.8486 0.56136-0.23081 8.6104-2.2803 17.887-4.5544 9.2763-2.2741 16.95-4.2337 17.053-4.3546 0.15415-0.1809-8.634-72.841-8.8698-73.335-0.0406-0.08508-2.1796 0.38927-4.7534 1.0541-2.5737 0.66484-10.442 2.658-17.485 4.4292-7.0431 1.7712-13.025 3.4112-13.293 3.6445-0.49766 0.43275-0.26249 3.3044 0.94427 11.53l0.6792 4.6298h10.52c9.6871 0 10.619 0.13963 11.769 1.7637 1.565 2.2093 1.6158 6.5376 0.10194 8.6748-0.97142 1.3714-2.6161 1.7096-10.724 2.205-5.267 0.32184-9.7185 0.78595-9.8923 1.0314-0.17383 0.2454 0.1587 4.3129 0.73896 9.0389 0.58027 4.726 1.0505 9.0887 1.0451 9.695-0.0076 0.84616-3.0361 1.1023-13.032 1.1023h-13.022l-6.1869 20.885c-3.4028 11.487-6.2801 21.207-6.3941 21.601-0.1945 0.67265 115.19 1.5189 117.44 0.86133 0.90761-0.26528 0.75923-1.2435-1.137-7.4959zm-56.908-14.389c-0.42946-0.24464-1.1322-0.24464-1.5617 0s-0.0781 0.44481 0.78083 0.44481c0.85892 0 1.2103-0.20017 0.78084-0.44481zm-3.0118-45.777c1.5051-2.1249 1.2268-5.2283-0.57265-6.3858-2.4757-1.5925-3.4431-0.4974-3.4431 3.8975 0 3.514 0.14098 3.8741 1.517 3.8741 0.83438 0 1.9588-0.62361 2.4987-1.3858zm-49.163-5.5012c0.78786-0.70661 8.2918-26.723 8.2918-28.748 0-0.62184-0.52824-1.8055-1.1739-2.6304-1.1342-1.4491-1.3241-0.95971-5.622 14.49-2.4465 8.7942-4.4481 16.352-4.4481 16.796 0 0.98049 1.8959 1.0398 2.9522 0.0924z" fill="#abd5cc"/>
  <path d="m-1.0006 297.58c0-0.16183 11.595-16.681 25.768-36.71l25.768-36.416 0.31233 18.25 0.31233 18.25 51.847-0.0609c28.516-0.0334 52.339-0.06 52.941-0.059 1.0197 2e-3 1.0932-2.0097 1.0932-29.908 0-23.103-0.1777-30.011-0.78083-30.355-0.61666-0.35128-0.61416-0.45943 0.0119-0.51442 0.52875-0.0465 0.66221-0.80377 0.40078-2.2743-0.38319-2.1554-0.31359-2.2047 3.1114-2.2047h3.5034l-0.0245-5.5117c-0.0219-4.9478-0.65416-7.6317-6.1799-26.236l-6.1555-20.724-29.879-0.47153-1.103-9.7664c-0.60666-5.3715-0.94147-9.9944-0.74401-10.273 0.19745-0.27875 0.359 0.353 0.359 1.4039 0 1.0509 0.1756 1.9107 0.39024 1.9107 0.21463 0 20.347-28.176 44.739-62.613 24.392-34.437 44.456-62.613 44.586-62.613s0.23682 66.868 0.23682 148.6v148.6h-105.26c-57.891 0-105.26-0.1324-105.26-0.29423zm79.669-56.307c-0.1546-0.63877-0.99948-4.733-1.8775-9.0982s-1.8743-8.0691-2.214-8.2308c-0.33968-0.16169-0.6176-1.0797-0.6176-2.0401 0-1.438 0.35735-1.6974 2.0248-1.4698 2.0084 0.27411 2.0351 0.34042 3.3026 8.1981l1.2779 7.9218 1.2702-7.9218c1.2536-7.8183 1.2961-7.9254 3.2564-8.1981 1.6289-0.22664 1.9861 0.0377 1.9861 1.4698 0 0.96037-0.28833 1.8818-0.64073 2.0476s-1.4135 4.2665-2.358 9.1127c-1.6054 8.237-1.8285 8.8294-3.4232 9.0907-1.0029 0.16433-1.8217-0.19909-1.9869-0.88187zm13.631-0.24441c-2.0271-2.0044-2.9049-6.0448-2.6012-11.973 0.30822-6.0156 1.497-8.406 4.6188-9.2874 2.6372-0.74461 5.1212 2.3363 5.9143 7.3354 1.5594 9.8293-3.3528 18.453-7.932 13.925zm4.1256-3.9456c1.0113-2.6678 0.80553-11.172-0.30844-12.745-1.9831-2.7996-3.3925 0.0856-3.4091 6.9787-0.0082 3.4378 1.3434 7.4716 2.5036 7.4716 0.312 0 0.85826-0.76759 1.2139-1.7058zm34.511 4.186c-1.0249-1.4469-0.95245-2.9176 0.21095-4.2807 1.3852-1.6229 3.388 1.1236 2.4121 3.3078-0.87736 1.9636-1.7041 2.2702-2.623 0.97293zm-25.744-1.5984c0-0.97985 0.41644-1.7637 0.937-1.7637 0.7548 0 0.937-1.3718 0.937-7.055 0-6.6386-0.70064-9.2305-1.4303-5.2912-0.1797 0.97006-0.77468 1.7637-1.3222 1.7637-0.74496 0-0.99549-0.88775-0.99549-3.5275v-3.5275h10.695l-0.19387 3.2997c-0.1355 2.306-0.52306 3.3878-1.287 3.5922-0.75623 0.20232-1.0932-0.27111-1.0932-1.536 0-1.0056-0.2811-1.8284-0.62467-1.8284-0.36439 0-0.62467 2.9396-0.62467 7.055 0 5.6832 0.1822 7.055 0.937 7.055 0.52056 0 0.937 0.78389 0.937 1.7637 0 1.55-0.41644 1.7637-3.4357 1.7637-3.0192 0-3.4357-0.21378-3.4357-1.7637zm10.873 0.74809c-0.24454-0.55861 0.02-1.4952 0.5878-2.0814 1.447-1.4937 1.5332-15.422 0.0954-15.422-1.1311 0-1.2564-2.2932-0.15617-2.8571 0.42946-0.22009 2.6783-0.48832 4.9973-0.59606l4.2165-0.19587v3.1473c0 2.5594-0.23337 3.1473-1.2493 3.1473-0.68714 0-1.2493-0.39684-1.2493-0.88187 0-0.48502-0.5622-0.88187-1.2493-0.88187-0.91618 0-1.2493 0.58792-1.2493 2.2047 0 1.9317 0.27068 2.2047 2.1863 2.2047 1.7699 0 2.1863 0.33595 2.1863 1.7637 0 1.4278-0.41645 1.7637-2.1863 1.7637-2.0822 0-2.1863 0.14699-2.1863 3.0866 0 2.4349 0.24837 3.0865 1.1765 3.0865 0.65113 0 1.3224-0.78758 1.5032-1.7637 0.17969-0.97005 0.77468-1.7637 1.3222-1.7637 0.74495 0 0.99548 0.88776 0.99548 3.5275v3.5275h-4.6481c-2.8331 0-4.8218-0.39659-5.0928-1.0156zm14.518-11.551c-0.74546-8.7616-0.62272-9.6327 1.3131-9.3182 0.94481 0.15347 1.6476 0.57667 1.5617 0.94044-0.0859 0.36377-0.15617 3.4393-0.15617 6.8345 0 5.4311-0.1397 6.1731-1.1623 6.1731-0.9357 0-1.2391-0.90269-1.5562-4.6298zm-42.57-62.401c0.68713-0.42397 8.1363-2.409 16.554-4.4112 8.4174-2.0022 16.077-3.9888 17.022-4.4148 1.0517-0.47416 1.7178-0.4503 1.7178 0.0615 0 0.4598-0.23459 0.83599-0.52131 0.83599-0.58641 0-21.526 5.3796-29.049 7.4628-5.5341 1.5326-7.7437 1.7124-5.7232 0.46566zm34.094-15.498c0.03-1.0273 0.17799-1.2363 0.3774-0.5328 0.18044 0.63659 0.15826 1.3972-0.0493 1.6902-0.20758 0.29304-0.35521-0.22782-0.32809-1.1574zm-0.62467-5.2912c0.03-1.0273 0.17799-1.2363 0.3774-0.5328 0.18045 0.63659 0.15826 1.3972-0.0493 1.6902-0.20757 0.29304-0.35521-0.22782-0.32808-1.1574zm-57.586-22.682c-4.494-2.6673-7.3068-5.1412-9.4621-8.3219l-1.7211-2.54 3.5951-13.013c3.5669-12.911 3.6093-13.01 5.3955-12.649 1.801 0.36413 3.1332 0.07775 11.317-2.4328 6.2248-1.9095 8.0899-1.697 12.085 1.377 5.7482 4.4234 5.9083 4.052-2.7143 6.2935l-4.3727 1.1367 0.14232 3.0831c0.07828 1.6957 0.46807 5.3649 0.8662 8.1539l0.72386 5.0708h10.534c9.7011 0 10.633 0.13945 11.783 1.7637 1.565 2.2093 1.6158 6.5376 0.10194 8.6748-0.96491 1.3622-2.629 1.7177-10.463 2.2352-5.1237 0.33846-10.581 1.0323-12.127 1.542s-4.9193 1.1019-7.496 1.3162c-3.919 0.32586-5.2577 0.0496-8.1881-1.6896zm37.19-4.6456c1.5051-2.1249 1.2268-5.2283-0.57265-6.3858-2.4757-1.5925-3.4431-0.4974-3.4431 3.8975 0 3.514 0.14098 3.8741 1.517 3.8741 0.83438 0 1.9588-0.62361 2.4987-1.3858zm16.939-0.85896c-0.23894-2.2495-0.30667-4.2704-0.1505-4.4908 0.15616-0.22047 0.47944 1.4396 0.71839 3.6891 0.23894 2.2495 0.30667 4.2704 0.15051 4.4908-0.15617 0.22047-0.47945-1.4396-0.7184-3.6891zm-95.915-14.524-23.425-13.063-0.16652-22.988-0.16652-22.988 1.4159 0.7686c1.2097 0.65669 55.052 30.402 57.119 31.556 1.109 0.61891 1.5078 2.8053 0.82003 4.4962-0.33743 0.82963-2.4559 8.2547-4.7077 16.5-2.2518 8.2455-4.3545 15.885-4.6726 16.976-0.31815 1.0913-1.0764 1.944-1.685 1.8948-0.60861-0.0492-11.648-5.9676-24.532-13.152zm95.071 6.6274c0.0127-1.4551 0.15273-1.9436 0.31111-1.0856s0.14797 2.0486-0.0232 2.6456c-0.17112 0.59705-0.3007-0.10497-0.28797-1.5601zm-1.64-12.594c-0.62704-5.1992-1.2861-10.048-1.4646-10.776-0.21579-0.8797-0.11624-1.0274 0.2972-0.44094 0.66752 0.9469 3.0488 19.623 2.5854 20.277-0.15289 0.21583-0.79101-3.8614-1.418-9.0606z" fill="#f5bb92"/>
  <path d="m-1.0006 297.58c0-0.16183 11.595-16.681 25.768-36.71l25.768-36.416 0.31233 18.25 0.31233 18.25 51.847-0.0609c28.516-0.0334 52.339-0.06 52.941-0.059 1.0197 2e-3 1.0932-2.0097 1.0932-29.908 0-23.103-0.1777-30.011-0.78083-30.355-0.61666-0.35128-0.61416-0.45943 0.0119-0.51442 0.52875-0.0465 0.66221-0.80377 0.40078-2.2743-0.38319-2.1554-0.31359-2.2047 3.1114-2.2047h3.5034l-0.0245-5.5117c-0.0219-4.9478-0.65416-7.6317-6.1799-26.236l-6.1555-20.724-29.879-0.47153-1.103-9.7664c-0.60666-5.3715-0.94147-9.9944-0.74401-10.273 0.19745-0.27875 0.359 0.353 0.359 1.4039 0 1.0509 0.1756 1.9107 0.39024 1.9107 0.21463 0 20.347-28.176 44.739-62.613 24.392-34.437 44.456-62.613 44.586-62.613s0.23682 66.868 0.23682 148.6v148.6h-105.26c-57.891 0-105.26-0.1324-105.26-0.29423zm79.669-56.307c-0.1546-0.63877-0.99948-4.733-1.8775-9.0982s-1.8743-8.0691-2.214-8.2308c-0.33968-0.16169-0.6176-1.0797-0.6176-2.0401 0-1.438 0.35735-1.6974 2.0248-1.4698 2.0084 0.27411 2.0351 0.34042 3.3026 8.1981l1.2779 7.9218 1.2702-7.9218c1.2536-7.8183 1.2961-7.9254 3.2564-8.1981 1.6289-0.22664 1.9861 0.0377 1.9861 1.4698 0 0.96037-0.28833 1.8818-0.64073 2.0476s-1.4135 4.2665-2.358 9.1127c-1.6054 8.237-1.8285 8.8294-3.4232 9.0907-1.0029 0.16433-1.8217-0.19909-1.9869-0.88187zm13.631-0.24441c-2.0271-2.0044-2.9049-6.0448-2.6012-11.973 0.30822-6.0156 1.497-8.406 4.6188-9.2874 2.6372-0.74461 5.1212 2.3363 5.9143 7.3354 1.5594 9.8293-3.3528 18.453-7.932 13.925zm4.1256-3.9456c1.0113-2.6678 0.80553-11.172-0.30844-12.745-1.9831-2.7996-3.3925 0.0856-3.4091 6.9787-0.0082 3.4378 1.3434 7.4716 2.5036 7.4716 0.312 0 0.85826-0.76759 1.2139-1.7058zm34.511 4.186c-1.0249-1.4469-0.95245-2.9176 0.21095-4.2807 1.3852-1.6229 3.388 1.1236 2.4121 3.3078-0.87736 1.9636-1.7041 2.2702-2.623 0.97293zm-25.744-1.5984c0-0.97985 0.41644-1.7637 0.937-1.7637 0.7548 0 0.937-1.3718 0.937-7.055 0-6.6386-0.70064-9.2305-1.4303-5.2912-0.1797 0.97006-0.77468 1.7637-1.3222 1.7637-0.74496 0-0.99549-0.88775-0.99549-3.5275v-3.5275h10.695l-0.19387 3.2997c-0.1355 2.306-0.52306 3.3878-1.287 3.5922-0.75623 0.20232-1.0932-0.27111-1.0932-1.536 0-1.0056-0.2811-1.8284-0.62467-1.8284-0.36439 0-0.62467 2.9396-0.62467 7.055 0 5.6832 0.1822 7.055 0.937 7.055 0.52056 0 0.937 0.78389 0.937 1.7637 0 1.55-0.41644 1.7637-3.4357 1.7637-3.0192 0-3.4357-0.21378-3.4357-1.7637zm10.873 0.74809c-0.24454-0.55861 0.02-1.4952 0.5878-2.0814 1.447-1.4937 1.5332-15.422 0.0954-15.422-1.1311 0-1.2564-2.2932-0.15617-2.8571 0.42946-0.22009 2.6783-0.48832 4.9973-0.59606l4.2165-0.19587v3.1473c0 2.5594-0.23337 3.1473-1.2493 3.1473-0.68714 0-1.2493-0.39684-1.2493-0.88187 0-0.48502-0.5622-0.88187-1.2493-0.88187-0.91618 0-1.2493 0.58792-1.2493 2.2047 0 1.9317 0.27068 2.2047 2.1863 2.2047 1.7699 0 2.1863 0.33595 2.1863 1.7637 0 1.4278-0.41645 1.7637-2.1863 1.7637-2.0822 0-2.1863 0.14699-2.1863 3.0866 0 2.4349 0.24837 3.0865 1.1765 3.0865 0.65113 0 1.3224-0.78758 1.5032-1.7637 0.17969-0.97005 0.77468-1.7637 1.3222-1.7637 0.74495 0 0.99548 0.88776 0.99548 3.5275v3.5275h-4.6481c-2.8331 0-4.8218-0.39659-5.0928-1.0156zm14.518-11.551c-0.74546-8.7616-0.62272-9.6327 1.3131-9.3182 0.94481 0.15347 1.6476 0.57667 1.5617 0.94044-0.0859 0.36377-0.15617 3.4393-0.15617 6.8345 0 5.4311-0.1397 6.1731-1.1623 6.1731-0.9357 0-1.2391-0.90269-1.5562-4.6298zm-42.57-62.401c0.68713-0.42397 8.1363-2.409 16.554-4.4112 8.4174-2.0022 16.077-3.9888 17.022-4.4148 1.0517-0.47416 1.7178-0.4503 1.7178 0.0615 0 0.4598-0.23459 0.83599-0.52131 0.83599-0.58641 0-21.526 5.3796-29.049 7.4628-5.5341 1.5326-7.7437 1.7124-5.7232 0.46566zm34.094-15.498c0.03-1.0273 0.17799-1.2363 0.3774-0.5328 0.18044 0.63659 0.15826 1.3972-0.0493 1.6902-0.20758 0.29304-0.35521-0.22782-0.32809-1.1574zm-0.62467-5.2912c0.03-1.0273 0.17799-1.2363 0.3774-0.5328 0.18045 0.63659 0.15826 1.3972-0.0493 1.6902-0.20757 0.29304-0.35521-0.22782-0.32808-1.1574zm-3.4566-28.186c-0.23894-2.2495-0.30667-4.2704-0.1505-4.4908 0.15616-0.22047 0.47944 1.4396 0.71839 3.6891 0.23894 2.2495 0.30667 4.2704 0.15051 4.4908-0.15617 0.22047-0.47945-1.4396-0.7184-3.6891zm-95.915-14.524-23.425-13.063-0.16652-22.988-0.16652-22.988 1.4159 0.7686c1.2097 0.65669 55.052 30.402 57.119 31.556 1.109 0.61891 1.5078 2.8053 0.82003 4.4962-0.33743 0.82963-2.4559 8.2547-4.7077 16.5-2.2518 8.2455-4.3545 15.885-4.6726 16.976-0.31815 1.0913-1.0764 1.944-1.685 1.8948-0.60861-0.0492-11.648-5.9676-24.532-13.152zm21.746 4.1921c0.14277-1.0466-0.19018-1.5332-1.0491-1.5332-1.4326 0-2.2259 1.3171-1.623 2.6944 0.60797 1.3888 2.4324 0.59587 2.6721-1.1613zm-5.5045-2.415c0-1.8705-2.091-2.5265-2.811-0.88187-0.57676 1.3175 0.22574 2.6456 1.5985 2.6456 0.79602 0 1.2125-0.60579 1.2125-1.7637zm78.83 4.8503c0.0127-1.4551 0.15273-1.9436 0.31111-1.0856s0.14797 2.0486-0.0232 2.6456c-0.17112 0.59705-0.3007-0.10497-0.28797-1.5601zm-1.64-12.594c-0.62704-5.1992-1.2861-10.048-1.4646-10.776-0.21579-0.8797-0.11624-1.0274 0.2972-0.44094 0.66752 0.9469 3.0488 19.623 2.5854 20.277-0.15289 0.21583-0.79101-3.8614-1.418-9.0606z" fill="#94c2b8"/>
  <path d="m87.702 281.09c-6.2083-0.67941-17.53-3.288-25.924-5.9731-3.9833-1.2742-12.998-6.4205-14.408-8.2251-0.70928-0.90799-1.5767-1.6509-1.9277-1.6509s-1.6515-1.5937-2.8901-3.5415c-2.6796-4.214-3.7116-10.342-2.0661-12.27 0.54443-0.63789 0.98988-1.7395 0.98988-2.4481 0-0.70858 0.31272-1.1412 0.69494-0.96128 0.38222 0.17985 1.5981-0.87839 2.702-2.3517 3.5699-4.7644 6.1066-6.9592 5.8991-5.1038-0.04068 0.36377-0.04068 5.7211 0 11.905l0.07397 11.244h106.19l0.01-10.803c5e-3 -5.9416 0.28206-11.398 0.6151-12.126 0.40038-0.87463 0.60878-0.95085 0.61511-0.22498 5e-3 0.6038 1.2042 1.9013 2.6644 2.8832 3.2095 2.1584 6.0961 7.614 6.5486 12.376 0.25858 2.7215 8e-3 4.1437-1.152 6.5332-1.6099 3.3169-8.2285 9.0131-13.361 11.499-1.7178 0.83202-3.6855 1.854-4.3727 2.271-2.1862 1.3269-9.0871 3.5506-13.677 4.4072-2.4413 0.45564-5.9848 1.1997-7.8745 1.6535-5.0634 1.2159-31.056 1.8149-39.354 0.90682zm-9.0366-39.821c-0.15627-0.63877-0.98174-4.7253-1.8344-9.0812-0.85263-4.3559-1.8476-8.0598-2.211-8.2308-0.36341-0.17101-0.66074-1.0967-0.66074-2.0571 0-1.4354 0.35729-1.697 2.0082-1.4698 1.985 0.27315 2.0233 0.36798 3.3195 8.2132l1.3113 7.9368 0.76333-4.8503c1.757-11.164 1.8582-11.464 3.8658-11.464 1.4067 0 1.8499 0.40499 1.8499 1.6902 0 0.92963-0.32904 1.8451-0.73119 2.0343-0.40215 0.18925-1.4676 4.29-2.3676 9.1127-1.5318 8.2078-1.7449 8.7864-3.3327 9.0481-0.99406 0.16381-1.8139-0.20126-1.9804-0.88187zm14.223 0.15101c-3.0619-1.7408-4.4248-12.032-2.3453-17.709 1.7699-4.8319 6.0039-5.3468 8.413-1.0231 0.96581 1.7334 1.2395 3.5761 1.2395 8.3465 0 5.5906-0.1585 6.3458-1.826 8.6998-1.8822 2.6572-3.1086 3.0344-5.4812 1.6855zm3.5372-4.341c0.90725-2.3932 0.8068-10.876-0.15067-12.725-0.99443-1.9199-2.6966-1.1289-3.1929 1.4837-1.4705 7.7404 1.2295 16.818 3.3436 11.241zm8.7673 3.0009c0-0.74278 0.42165-1.5789 0.937-1.8581 1.312-0.71076 1.378-14.429 0.0694-14.429-0.47717 0-0.82855 0.67927-0.78083 1.5095 0.0477 0.83021-0.40517 1.653-1.0064 1.8284-0.89917 0.26232-1.0932-0.31856-1.0932-3.2732v-3.5921h10.695l-0.19387 3.2388c-0.21622 3.612-1.6493 5.021-2.182 2.1453-0.74555-4.0249-1.4475-1.504-1.4475 5.1983 0 5.6832 0.1822 7.055 0.937 7.055 0.52056 0 0.937 0.78389 0.937 1.7637 0 1.55-0.41644 1.7637-3.4357 1.7637-2.6688 0-3.4357-0.30145-3.4357-1.3505zm11.244-0.41327c0-0.97005 0.2811-1.7637 0.62466-1.7637 0.36746 0 0.62467-3.0865 0.62467-7.4959 0-6.0751-0.1776-7.4959-0.937-7.4959-0.51535 0-0.937-0.59527-0.937-1.3228 0-1.0498 0.90229-1.3228 4.3727-1.3228 2.405 0 4.5835-0.0992 4.8412-0.22047 0.25767-0.12126 0.55658 1.0693 0.66424 2.6456 0.1637 2.3968-0.0153 2.8661-1.0932 2.8661-0.70891 0-1.2889-0.39684-1.2889-0.88187 0-0.48502-0.5622-0.88187-1.2493-0.88187-0.90752 0-1.2493 0.58792-1.2493 2.1488 0 1.7784 0.34903 2.1964 2.025 2.4252 1.3337 0.182 2.0958 0.80321 2.2321 1.8196 0.16592 1.2364-0.23676 1.5433-2.025 1.5433-2.1346 0-2.2321 0.13492-2.2321 3.0866 0 2.4349 0.24837 3.0865 1.1765 3.0865 0.65113 0 1.3224-0.78758 1.5032-1.7637 0.17969-0.97005 0.77468-1.7637 1.3222-1.7637 0.74495 0 0.99548 0.88776 0.99548 3.5275v3.5275h-4.685c-4.2686 0-4.685-0.15677-4.685-1.7637zm13.95 0.37256c-0.20798-0.76516 0.082-2.0407 0.64428-2.8346 0.94677-1.3366 1.0981-1.3366 2.0448 0 1.2771 1.803 0.69093 4.2258-1.0224 4.2258-0.70869 0-1.4587-0.62603-1.6667-1.3912zm0.41193-8.9061c-3e-3 -1.3694-0.18269-4.5732-0.39934-7.1196-0.38903-4.5723-0.37312-4.6298 1.281-4.6298h1.675l-0.18244 6.8249c-0.15175 5.677-0.36632 6.8745-1.2756 7.1196-0.83137 0.22411-1.0945-0.3016-1.0986-2.1951zm-42.472-64.578c0.51535-0.42258 2.4831-0.99654 4.3727-1.2755 2.5981-0.3835 2.9027-0.32609 1.2493 0.23548-4.0287 1.3684-6.6033 1.8447-5.622 1.04zm8.5892-2.4311c0.42946-0.24464 1.1322-0.24464 1.5617 0s0.0781 0.44481-0.78083 0.44481c-0.85892 0-1.2103-0.20017-0.78083-0.44481zm3.4476-0.90895c0.60778-0.22359 1.4511-0.20889 1.874 0.0327 0.42292 0.24157-0.0743 0.4245-1.105 0.40653-1.0307-0.018-1.3767-0.21562-0.76895-0.43921zm3.748-0.88187c0.60778-0.22359 1.4511-0.20889 1.874 0.0327 0.42292 0.24157-0.0744 0.4245-1.1051 0.40653-1.0307-0.018-1.3767-0.21562-0.76894-0.43921zm3.4238-0.85479c0.42946-0.24464 1.1322-0.24464 1.5617 0 0.42945 0.24464 0.0781 0.44481-0.78084 0.44481-0.85892 0-1.2103-0.20017-0.78083-0.44481zm3.1233-0.88187c0.42946-0.24464 1.1322-0.24464 1.5617 0s0.0781 0.44481-0.78083 0.44481c-0.85892 0-1.2103-0.20017-0.78084-0.44481zm3.748-0.88187c0.42946-0.24464 1.1322-0.24464 1.5617 0 0.42946 0.24464 0.0781 0.44481-0.78083 0.44481-0.85892 0-1.2103-0.20017-0.78083-0.44481zm3.748-0.88187c0.42946-0.24464 1.1322-0.24464 1.5617 0s0.0781 0.44481-0.78084 0.44481c-0.85891 0-1.2103-0.20017-0.78083-0.44481zm3.787-0.90024c0.45093-0.25474 0.98971-0.22342 1.1973 0.0696 0.20757 0.29304-0.16138 0.50147-0.81988 0.46318-0.72771-0.0423-0.87572-0.25128-0.37741-0.53279zm-1.7222-23.698c-0.42156-3.6893-0.64155-6.8842-0.48885-7.0997 0.1527-0.21557 0.62255 2.6266 1.0441 6.3158 0.42157 3.6893 0.64155 6.8841 0.48886 7.0997-0.1527 0.21557-0.62255-2.6266-1.0441-6.3158zm-84.052-23.651c-5.4971-3.071-16.249-9.0532-23.894-13.294l-13.899-7.7099v-45.591l2.9672 1.6952c1.6319 0.93235 14.906 8.272 29.498 16.31 14.592 8.0383 26.71 15.025 26.93 15.526 0.44939 1.0265-9.3355 37.004-10.338 38.01-0.90927 0.9125-0.29495 1.1822-11.265-4.9463zm7.6908-3.428c0.14277-1.0466-0.19018-1.5332-1.0491-1.5332-1.4326 0-2.2259 1.3171-1.623 2.6944 0.60797 1.3888 2.4324 0.59587 2.6721-1.1613zm-5.5045-2.415c0-1.8705-2.091-2.5265-2.811-0.88187-0.57676 1.3175 0.22574 2.6456 1.5985 2.6456 0.79602 0 1.2125-0.60579 1.2125-1.7637zm78.757 4.7768c0.03-1.0273 0.17799-1.2363 0.3774-0.5328 0.18045 0.63659 0.15826 1.3972-0.0493 1.6902-0.20757 0.29304-0.35521-0.22782-0.32809-1.1574z" fill="#8db6ae"/>
  <path d="m93.324 274.93c-3.951-0.41315-10.664-1.7709-14.917-3.0172-4.2536-1.2463-7.9581-2.266-8.2322-2.266-0.27415 0-0.9479-0.63448-1.4972-1.41-0.54931-0.77548-2.1857-1.6286-3.6365-1.8959-1.4507-0.26728-2.8155-0.87048-3.0328-1.3404-0.2173-0.46998-2.958-1.0608-6.0905-1.3129-3.1325-0.25214-5.6954-0.80024-5.6954-1.218 0-0.41892 24.091-0.75955 53.721-0.75955 29.63 0 53.721 0.34063 53.721 0.75955 0 0.41776-2.5288 0.96311-5.6195 1.2119-3.0907 0.24879-5.972 0.83076-6.4028 1.2933-0.7611 0.81705-6.3984 3.9908-7.6547 4.3095-0.34356 0.0871-1.7491 0.58221-3.1233 1.1001-10.499 3.9567-28.419 5.9177-41.54 4.5457zm-14.892-35.437c-0.35462-1.604-1.1243-5.4959-1.7104-8.6486-0.58611-3.1527-1.4827-6.2091-1.9925-6.7921-1.3092-1.4973-0.47886-3.7903 1.3726-3.7903 1.6722 0 1.8413 0.54597 3.6437 11.77l0.82801 5.1562 1.1151-6.92c1.68-10.425 1.5312-10.006 3.5566-10.006 1.9396 0 2.404 1.4946 1.0511 3.3824-0.42946 0.59923-1.5084 4.9446-2.3977 9.6565-1.4778 7.83-1.7547 8.5903-3.2193 8.8378-1.3357 0.22576-1.7097-0.21459-2.2472-2.6456zm14.395 1.9108c-3.8264-2.2187-4.3762-17.523-0.72844-20.279 1.2971-0.98004 3.7577-1.1277 5.257-0.31545 1.6997 0.9208 2.839 5.2642 2.839 10.824 0 4.2357-0.27923 5.727-1.4055 7.5065-1.6308 2.5766-3.9223 3.4468-5.9621 2.2641zm3.4947-3.6809c0.91867-1.2969 0.993-10.762 0.10296-13.11-1.6209-4.2758-3.726-0.75536-3.726 6.2311 0 6.739 1.5873 9.7526 3.6231 6.8786zm8.8703 2.381c0-0.72754 0.42165-1.3228 0.937-1.3228 0.7594 0 0.937-1.4208 0.937-7.4959 0-6.0751-0.1776-7.4959-0.937-7.4959-0.53305 0-0.937 0.79206-0.937 1.8372 0 3.1829-1.5501 1.3058-1.7556-2.1259l-0.19387-3.2388h10.07v2.6456c0 1.4551 0.021 2.9333 0.0468 3.285 0.11682 1.5943-1.4162 1.108-1.7226-0.54644-0.74203-4.0059-1.4475-1.5183-1.4475 5.104 0 5.3737 0.21363 7.0763 0.937 7.4682 0.51535 0.27918 0.937 1.1153 0.937 1.8581 0 1.049-0.76689 1.3505-3.4357 1.3505-2.6375 0-3.4357-0.30731-3.4357-1.3228zm11.244-0.4023c0-0.99131 0.2811-1.8024 0.62466-1.8024 0.36746 0 0.62467-3.0865 0.62467-7.4959s-0.25721-7.4959-0.62467-7.4959c-0.34356 0-0.62466-0.59527-0.62466-1.3228 0-1.0582 0.937-1.3228 4.685-1.3228h4.685v2.6456c0 2.0577-0.27762 2.6456-1.2493 2.6456-0.69408 0-1.2493-0.58791-1.2493-1.3228s-0.55526-1.3228-1.2493-1.3228c-0.97171 0-1.2493 0.58791-1.2493 2.6456 0 2.3517 0.20822 2.6456 1.874 2.6456 1.4576 0 1.874 0.39194 1.874 1.7637 0 1.3718-0.41645 1.7637-1.874 1.7637-1.7253 0-1.874 0.24497-1.874 3.0866 0 2.4986 0.23796 3.0865 1.2493 3.0865 0.69407 0 1.2493-0.58791 1.2493-1.3228 0-0.74843 0.55966-1.3228 1.2889-1.3228 1.0779 0 1.2569 0.4693 1.0932 2.8661l-0.19574 2.8661-4.5288 0.2591c-4.2046 0.24056-4.5288 0.13007-4.5288-1.5433zm13.969 0.40487c-0.21587-0.79416-0.10392-1.8513 0.24877-2.3492 1.0183-1.4375 2.9603-0.46868 2.9603 1.4769 0 2.2432-2.6413 2.9612-3.2091 0.87236zm0.84836-7.2314c-0.15888-0.38938-0.48275-3.5851-0.71973-7.1015l-0.43087-6.3936h3.2515l-0.18244 6.7637c-0.1115 4.1335-0.46383 6.8951-0.90603 7.1015-0.39798 0.18579-0.85358 0.0192-1.0125-0.37015zm-108.99-130.1-23.894-13.288v-45.379l28.465 15.766c15.656 8.6712 29.008 16.176 29.672 16.678 0.66384 0.50155 1.207 1.4143 1.207 2.0284 0 1.523-9.3242 35.143-10.129 36.521-0.35392 0.60629-0.8199 1.0709-1.0355 1.0324-0.21561-0.0385-11.144-6.0496-24.286-13.358zm21.59 4.3788c0.14277-1.0466-0.19018-1.5332-1.0491-1.5332-1.4326 0-2.2259 1.3171-1.623 2.6944 0.60797 1.3888 2.4324 0.59587 2.6721-1.1613zm-5.5045-2.415c0-1.8705-2.091-2.5265-2.811-0.88187-0.57676 1.3175 0.22574 2.6456 1.5985 2.6456 0.79602 0 1.2125-0.60579 1.2125-1.7637z" fill="#749b95"/>
  <path d="m77.239 261.93c14.687-0.13182 38.722-0.13182 53.409 0 14.687 0.13181 2.6705 0.23965-26.705 0.23965-29.375 0-41.392-0.10784-26.705-0.23965zm0.10647-29.418c-0.96995-4.903-2.1286-9.1123-2.5748-9.354-1.466-0.79417-0.84768-2.0145 1.0207-2.0145 2.0425 0 1.9362-0.30513 3.5305 10.132 1.2174 7.9699 1.444 7.7292 3.1041-3.2976 0.93678-6.2224 1.1632-6.8345 2.5279-6.8345 1.5573 0 1.8972 0.81035 0.94345 2.2488-0.51348 0.77439-1.4159 4.8421-3.1694 14.286-0.56843 3.0614-0.96359 3.7479-2.1574 3.7479-1.3195 0-1.6328-0.86597-3.225-8.9145zm14.433 7.1761c-2.4879-3.881-2.2996-14.873 0.30586-17.851 1.892-2.1628 4.498-1.9838 6.0968 0.41884 2.52 3.7869 2.5814 13.961 0.10527 17.456-1.6077 2.2696-5.0458 2.257-6.5079-0.0239zm5.3089-3.1692c1.4123-5.2442 0.23621-13.612-1.9132-13.612-1.8534 0-2.7664 2.6193-2.7664 7.9368 0 2.9585 0.3513 5.6531 0.84691 6.4962 1.2755 2.1697 3.1345 1.7713 3.8327-0.82145zm34.133 4.3198c-0.93203-1.3158-0.38592-3.8214 0.83288-3.8214 0.91619 0 1.2493 0.58792 1.2493 2.2047 0 2.075-1.1339 2.9555-2.0822 1.6168zm-25.715-1.1758c-0.21234-0.48502 0.21928-0.88187 0.95916-0.88187 1.2956 0 1.3351-0.28453 1.0706-7.7164-0.22358-6.2815-0.46686-7.7694-1.3084-8.0015-0.6944-0.19154-1.0337 0.31504-1.0337 1.5433 0 1.0056-0.2811 1.8284-0.62467 1.8284s-0.62467-1.3889-0.62467-3.0865v-3.0865h9.37v3.0865c0 1.6976-0.2811 3.0865-0.62467 3.0865s-0.62467-0.79368-0.62467-1.7637c0-1.1758-0.41644-1.7637-1.2493-1.7637-1.1568 0-1.2493 0.58791-1.2493 7.9368 0 7.3489 0.0925 7.9368 1.2493 7.9368 0.68713 0 1.2493 0.39685 1.2493 0.88187 0 0.48503-1.3889 0.88187-3.0865 0.88187-1.6976 0-3.2602-0.39684-3.4725-0.88187zm10.932 0.0944c0-0.43314 0.43266-1.0219 0.96146-1.3084 0.78438-0.42492 0.9282-1.9448 0.78084-8.2516-0.13107-5.6093-0.39492-7.6703-0.96147-7.5103-0.42946 0.12125-0.78083-0.3748-0.78083-1.1023 0-1.0498 0.90229-1.3228 4.3727-1.3228h4.3727v2.6456c0 1.4551-0.2811 2.6456-0.62467 2.6456s-0.62467-0.59526-0.62467-1.3228c0-0.88795-0.62906-1.3228-1.9136-1.3228-1.7826 0-1.9002 0.19614-1.7178 2.8661 0.17212 2.5201 0.44079 2.8994 2.2259 3.1424 1.1505 0.15661 2.0302 0.77376 2.0302 1.4243 0 0.72555-0.74707 1.1152-2.0302 1.0588-1.9069-0.0838-2.0419 0.11085-2.224 3.2055-0.18517 3.1469-0.10812 3.2946 1.7178 3.2946 1.2828 0 1.9117-0.43514 1.9117-1.3228 0-0.72754 0.42165-1.3228 0.937-1.3228 0.62467 0 0.937 0.88187 0.937 2.6456v2.6456h-4.685c-2.5768 0-4.685-0.35438-4.685-0.78751zm14.429-13.322c-0.12038-5.8203-0.0494-6.1731 1.2417-6.1731 1.2855 0 1.3452 0.28353 0.97542 4.6298-0.21665 2.5464-0.39635 5.3243-0.39934 6.1731-3e-3 0.8488-0.38447 1.5433-0.84775 1.5433-0.61426 0-0.87688-1.6713-0.96999-6.1731zm-108.89-124.13-23.566-12.996-0.014989-22.267c-0.00824-12.247 0.092011-22.267 0.22279-22.267 0.67701 0 58.254 32.035 58.737 32.68 0.33553 0.4484-1.4991 8.2667-4.4806 19.094-3.8449 13.963-5.3209 18.384-6.1902 18.544-0.62778 0.11506-11.746-5.6391-24.708-12.787zm21.692 5.082c0-2.5139-1.9716-3.5798-2.5674-1.388-0.56832 2.0908 0.23581 4.2024 1.4723 3.8662 0.69152-0.18801 1.0951-1.1012 1.0951-2.4782zm-5.2837-1.3671c0.66242-1.1268 0.62948-1.613-0.18741-2.7662-0.54509-0.76953-1.4345-1.1589-1.9765-0.86529-1.1718 0.6348-1.3176 3.7805-0.2046 4.4145 1.28 0.72917 1.5277 0.6473 2.3685-0.78302z" fill="#393d3f"/>
 </g>
</svg>
