<?xml version="1.0" encoding="UTF-8" standalone="no"?>
<!-- Created with Inkscape (http://www.inkscape.org/) -->

<svg
   xmlns:dc="http://purl.org/dc/elements/1.1/"
   xmlns:cc="http://creativecommons.org/ns#"
   xmlns:rdf="http://www.w3.org/1999/02/22-rdf-syntax-ns#"
   xmlns:svg="http://www.w3.org/2000/svg"
   xmlns="http://www.w3.org/2000/svg"
   xmlns:xlink="http://www.w3.org/1999/xlink"
   xmlns:sodipodi="http://sodipodi.sourceforge.net/DTD/sodipodi-0.dtd"
   xmlns:inkscape="http://www.inkscape.org/namespaces/inkscape"
   width="210mm"
   height="297mm"
   viewBox="0 0 210 297"
   version="1.1"
   id="svg8"
   sodipodi:docname="logosvg2.svg"
   inkscape:version="0.92.3 (2405546, 2018-03-11)">
  <defs
     id="defs2" />
  <sodipodi:namedview
     id="base"
     pagecolor="#ffffff"
     bordercolor="#666666"
     borderopacity="1.0"
     inkscape:pageopacity="0.0"
     inkscape:pageshadow="2"
     inkscape:zoom="0.49497475"
     inkscape:cx="566.84993"
     inkscape:cy="521.37478"
     inkscape:document-units="mm"
     inkscape:current-layer="layer1"
     showgrid="false"
     inkscape:window-width="1366"
     inkscape:window-height="705"
     inkscape:window-x="-8"
     inkscape:window-y="-8"
     inkscape:window-maximized="1" />
  <metadata
     id="metadata5">
    <rdf:RDF>
      <cc:Work
         rdf:about="">
        <dc:format>image/svg+xml</dc:format>
        <dc:type
           rdf:resource="http://purl.org/dc/dcmitype/StillImage" />
        <dc:title></dc:title>
      </cc:Work>
    </rdf:RDF>
  </metadata>
  <g
     inkscape:label="Layer 1"
     inkscape:groupmode="layer"
     id="layer1">
    <image
       sodipodi:absref="G:\All React Apps\UNIVERSTIY VOTING PROJECT\votingClientSide\votingclient\src\images\logo.jpg"
       xlink:href="logo.jpg"
       width="45.142597"
       height="34.6161"
       preserveAspectRatio="none"
       id="image18"
       x="81.895569"
       y="123.58453" />
    <g
       id="g173"
       transform="matrix(1.1776168,0,0,1.1544192,-25.236813,-19.083825)">
      <path
         style="fill:#fdfdfd;stroke-width:0.24976322"
         d="m 81.895569,140.89258 v -17.30805 h 22.571301 22.5713 v 17.30805 17.30805 h -22.5713 -22.571301 z"
         id="path189"
         inkscape:connector-curvature="0" />
      <path
         style="fill:#d1d0d0;stroke-width:0.24976322"
         d="m 85.088045,152.54667 0.110452,-0.80771 3.957571,-0.0273 c 2.176664,-0.0151 4.140034,-0.007 4.363044,0.0188 0.22301,0.0254 -0.131655,-0.42516 -0.788144,-1.00113 -0.656489,-0.57598 -1.325519,-0.98316 -1.486733,-0.90486 -0.161213,0.0783 -0.202939,0.0574 -0.09272,-0.0465 0.110215,-0.10387 0.06367,-0.32949 -0.103444,-0.5014 -0.24093,-0.24783 -0.394347,-0.25453 -0.741021,-0.0324 -0.366276,0.23474 -0.382688,0.22798 -0.101184,-0.0417 0.272057,-0.26062 0.225014,-0.42274 -0.247195,-0.85186 -0.546883,-0.49698 -0.555145,-0.55644 -0.132676,-0.95497 0.247787,-0.23376 0.359024,-0.51111 0.247195,-0.61636 -0.111829,-0.10524 -0.07104,-0.12708 0.09064,-0.0485 0.37362,0.18153 2.356479,-1.53083 2.076788,-1.79348 -0.114529,-0.10755 -0.06686,-0.12647 0.105938,-0.042 0.185774,0.0908 1.914338,-1.21453 4.229528,-3.19384 2.153446,-1.84104 4.013366,-3.34733 4.133156,-3.34733 0.11979,0 0.61072,0.32512 1.09095,0.7225 l 0.87316,0.7225 -0.92787,0.74708 c -0.78957,0.63574 -0.92786,0.90171 -0.92786,1.78455 0,0.80676 0.15465,1.16949 0.6955,1.63122 1.11872,0.95508 2.09713,1.01046 3.8918,0.22027 l 1.54956,-0.68227 2.63433,2.18774 2.63432,2.18774 -1.98593,1.75065 c -1.09226,0.96286 -2.10756,1.82933 -2.25624,1.92549 -0.14867,0.0962 2.33338,0.20363 5.51567,0.23882 l 5.78598,0.064 0.0258,0.75004 0.0258,0.75003 -17.1783,-2e-5 -17.178294,-1e-5 z m 12.729052,-4.96928 c 0.758246,-1.01961 1.378629,-1.90232 1.378629,-1.96158 0,-0.0593 -0.178334,-0.10775 -0.396298,-0.10775 -0.217964,0 -0.885386,0.7529 -1.483159,1.67311 -0.597773,0.92021 -1.099916,1.62119 -1.115874,1.55773 -0.01596,-0.0635 -0.06181,-0.47886 -0.101902,-0.9231 -0.04009,-0.44424 -0.08946,-0.98944 -0.109718,-1.21156 -0.02026,-0.22212 -0.188881,-0.40409 -0.374722,-0.40438 -0.246732,-3.7e-4 -0.313677,0.43546 -0.248133,1.61542 0.124866,2.24793 0.639715,2.19796 2.451177,-0.23789 z m 2.980903,1.24577 c 0.66398,-0.72065 0.70151,-1.08457 0.15953,-1.54727 -0.8004,-0.68332 -2.572749,0.1637 -2.572749,1.22954 0,0.77811 0.176532,0.92579 1.106693,0.92579 0.484247,0 0.942986,-0.2135 1.306526,-0.60806 z m -1.595491,0.0381 c -0.277901,-0.28587 -0.256863,-0.46052 0.113627,-0.94325 0.250073,-0.32583 0.598976,-0.55187 0.775344,-0.50232 0.5331,0.14979 0.51292,0.97678 -0.0342,1.39945 -0.457423,0.35341 -0.551178,0.35847 -0.854821,0.0461 z m 4.047941,0.33918 c 0,-0.12692 -0.12164,-0.23077 -0.27031,-0.23077 -0.46933,0 -0.29288,-0.90384 0.27031,-1.38464 0.29735,-0.25386 0.41899,-0.46155 0.27032,-0.46155 -0.14868,0 -0.27032,-0.15577 -0.27032,-0.34616 0,-0.51343 -0.47572,-0.41937 -0.84312,0.16672 -0.31052,0.49533 -0.50252,1.95961 -0.30344,2.3141 0.14552,0.25911 1.14656,0.20874 1.14656,-0.0577 z m 2.85272,-0.0199 c 0.1185,-0.16368 -0.0853,-0.22375 -0.58724,-0.17308 -0.57489,0.058 -0.79325,-0.0297 -0.86602,-0.34792 -0.0834,-0.36479 0.04,-0.40972 0.86508,-0.3148 0.79076,0.091 0.99315,0.028 1.1349,-0.3533 0.31236,-0.84021 -1.18573,-1.18789 -2.09416,-0.48603 -0.48172,0.37219 -0.67522,1.46369 -0.31412,1.77197 0.29047,0.24798 1.66365,0.17655 1.86156,-0.0968 z m -1.16338,-1.42242 c 0.17031,-0.43667 1.01381,-0.49875 1.01381,-0.0746 0,0.21408 -0.23112,0.36308 -0.56316,0.36308 -0.33031,0 -0.51664,-0.11926 -0.45065,-0.28846 z m -2.5517,-3.71528 c -1.75222,-1.00809 -1.60881,-2.7708 0.29285,-3.5994 2.51527,-1.09598 3.46213,-3.62936 2.11526,-5.65954 -1.5335,-2.31149 -4.850405,-2.8292 -7.220071,-1.12692 -2.021115,1.45188 -2.188197,4.25464 -0.351618,5.8983 l 0.697541,0.62427 -1.66992,1.41683 c -1.279548,1.08562 -1.7526,1.35824 -2.023605,1.16623 -0.194527,-0.13783 -0.433725,-0.19957 -0.53155,-0.13721 -0.09783,0.0624 -0.122305,0.0486 -0.0544,-0.0305 0.06791,-0.0791 -0.161016,-0.46856 -0.508718,-0.8654 -0.996448,-1.13728 -1.528053,-2.16776 -1.881561,-3.6473 l -0.327579,-1.37101 -1.018881,1.58684 c -0.997422,1.55342 -1.043124,1.58791 -2.170009,1.63771 -0.942969,0.0417 -1.28685,-0.065 -1.901666,-0.58988 -0.645851,-0.55138 -0.732437,-0.77784 -0.620772,-1.62362 0.07137,-0.54058 0.540065,-1.56797 1.041541,-2.28309 0.89545,-1.27694 3.702927,-4.18539 4.074426,-4.22096 0.104051,-0.01 0.719799,-0.32384 1.368327,-0.6975 0.648528,-0.37367 2.144737,-0.96891 3.324909,-1.32277 l 2.145768,-0.64339 11.019988,-0.004 11.01998,-0.004 0.0301,4.73087 0.0301,4.73086 -3.13225,0.0649 -3.13225,0.0649 -2.98785,2.31796 c -1.68297,1.30564 -2.90914,2.42669 -2.80762,2.56693 0.0991,0.13693 0.0601,0.18559 -0.0867,0.10813 -0.14681,-0.0775 -0.68258,0.0973 -1.1906,0.38832 -0.50803,0.29105 -1.31335,0.64283 -1.78961,0.78175 -0.74357,0.2169 -0.99135,0.18043 -1.75348,-0.25804 z"
         id="path187"
         inkscape:connector-curvature="0" />
      <path
         style="fill:#999898;stroke-width:0.24976322"
         d="m 85.139348,152.54667 v -0.80771 h 4.38665 4.38665 l -2.222517,-1.90732 -2.222518,-1.90733 5.668835,-4.83549 5.668832,-4.8355 0.94458,0.7816 0.94459,0.78161 -0.95028,0.71111 c -1.21916,0.91231 -1.45678,2.00703 -0.66904,3.08229 1.00041,1.36555 2.91769,1.53327 4.87654,0.42658 l 1.00355,-0.56697 2.53247,2.17105 2.53247,2.17105 -1.34381,1.19823 c -0.7391,0.65902 -1.67833,1.46194 -2.08718,1.78427 -0.40885,0.32233 -0.74337,0.66677 -0.74337,0.76543 0,0.0987 2.55448,0.17939 5.67662,0.17939 h 5.67661 v 0.80771 0.80771 H 102.16919 85.139348 Z m 12.838367,-5.08507 c 0.81858,-1.08329 1.488326,-2.00352 1.488326,-2.04496 0,-0.0414 -0.275313,-0.0304 -0.611806,0.0245 -0.425733,0.0695 -0.898454,0.55955 -1.554311,1.61136 l -0.942505,1.51153 -0.135158,-1.23752 c -0.107072,-0.98037 -0.241874,-1.25482 -0.648737,-1.32079 -0.465052,-0.0754 -0.496979,0.0201 -0.337894,1.011 0.09663,0.60185 0.175687,1.39132 0.175687,1.75439 0,0.50561 0.126162,0.66011 0.539036,0.66011 0.380146,0 0.977748,-0.58058 2.027362,-1.96962 z m 2.461535,1.793 c 0.39907,-0.22748 0.919,-1.0936 0.919,-1.53089 0,-0.19427 -0.25432,-0.46942 -0.56516,-0.61144 -1.246523,-0.56953 -3.049025,0.83533 -2.400042,1.87059 0.28421,0.45337 1.454864,0.60884 2.046202,0.27174 z m -1.243524,-0.83361 c 0,-0.66221 0.70832,-1.24666 1.102764,-0.90992 0.3752,0.32033 -0.16373,1.4586 -0.690601,1.4586 -0.25377,0 -0.412163,-0.21086 -0.412163,-0.54868 z m 4.054724,0.79868 c 0,-0.11634 -0.13082,-0.24877 -0.29072,-0.29427 -0.4188,-0.11918 -0.004,-1.34037 0.45518,-1.34037 0.20689,0 0.37617,-0.10385 0.37617,-0.23078 0,-0.12692 -0.12164,-0.23077 -0.27031,-0.23077 -0.14868,0 -0.27032,-0.15577 -0.27032,-0.34616 0,-0.47864 -0.70832,-0.43584 -0.9548,0.0577 -0.11093,0.22212 -0.24405,0.89713 -0.29582,1.50003 -0.0889,1.03546 -0.0569,1.09618 0.57825,1.09618 0.3698,0 0.67237,-0.0952 0.67237,-0.21155 z m 2.97346,-0.0192 c 0,-0.12692 -0.29692,-0.23077 -0.65983,-0.23077 -1.09092,0 -1.052,-0.42756 0.046,-0.50502 0.87121,-0.0615 1.01934,-0.1521 1.01934,-0.6237 0,-0.83063 -0.73485,-1.1195 -1.6069,-0.63169 -0.97548,0.54566 -1.41986,1.40388 -0.96774,1.86896 0.37824,0.38909 2.16916,0.48999 2.16916,0.12222 z m -1.35157,-1.35995 c 0,-0.2594 0.70312,-0.50137 0.91967,-0.31649 0.3254,0.2778 0.14785,0.52257 -0.37904,0.52257 -0.29735,0 -0.54063,-0.0927 -0.54063,-0.20608 z m -2.77148,-3.9442 c -0.7947,-0.53367 -1.10586,-1.3644 -0.78683,-2.10067 0.12386,-0.28585 0.88392,-0.94677 1.68902,-1.46872 1.75088,-1.13511 2.40929,-2.14757 2.40849,-3.70364 -0.001,-2.05908 -1.87067,-3.78517 -4.31729,-3.98588 -4.428799,-0.3633 -6.933577,4.21424 -3.837144,7.01247 l 0.540092,0.48808 -1.695624,1.43473 -1.695624,1.43472 -0.85594,-0.88432 c -1.170591,-1.2094 -1.852154,-2.47803 -2.263523,-4.21321 l -0.347123,-1.46418 -0.735415,1.28222 c -0.823836,1.43638 -1.83832,2.24159 -2.824171,2.24159 -0.84106,0 -2.241261,-1.18016 -2.237789,-1.88613 0.0068,-1.37488 2.498768,-4.71361 4.776428,-6.39935 1.524698,-1.12846 4.518173,-2.40832 6.439002,-2.75301 0.749775,-0.13455 6.135881,-0.28744 12.096591,-0.34338 l 10.74502,-0.10084 v 4.83527 4.83526 l -3.08041,-0.0672 -3.08042,-0.0672 -2.3479,1.83872 c -5.81509,4.55399 -6.99256,5.10709 -8.58944,4.03472 z"
         id="path185"
         inkscape:connector-curvature="0" />
      <path
         style="fill:#585657;stroke-width:0.24976322"
         d="m 85.188972,152.48897 0.08553,-0.63463 4.447307,-0.0636 4.447306,-0.0636 -2.281389,-1.95785 -2.281389,-1.95784 5.598661,-4.77971 5.598662,-4.7797 0.95039,0.78641 0.9504,0.78641 -0.72246,0.4046 c -1.69493,0.94922 -1.91928,2.60337 -0.51562,3.80171 1.16574,0.99522 2.37398,1.04175 4.26267,0.16416 l 1.33534,-0.62047 2.48175,2.11873 2.48175,2.11873 -2.28781,1.96335 -2.2878,1.96335 h 5.87338 5.87338 v 0.69232 0.69232 H 102.15124 85.103438 Z m 15.696218,-3.55471 c 0.90242,-0.91047 0.45381,-2.04156 -0.80971,-2.04156 -0.772007,0 -1.961014,0.96311 -1.961014,1.58845 0,1.18917 1.756481,1.47642 2.770724,0.45311 z m -1.642129,-0.57699 c 0.05536,-0.41159 0.270148,-0.68245 0.581117,-0.73283 0.398382,-0.0645 0.476402,0.0457 0.405472,0.57299 -0.0554,0.41159 -0.270148,0.68244 -0.581117,0.73282 -0.398378,0.0645 -0.476396,-0.0457 -0.405472,-0.57298 z m 3.886789,1.05384 c 0.0999,-0.13799 0.0643,-0.35103 -0.0791,-0.47343 -0.36654,-0.31292 -0.085,-1.35265 0.36633,-1.35265 0.20568,0 0.37396,-0.15578 0.37396,-0.34617 0,-0.19038 -0.11782,-0.34616 -0.26183,-0.34616 -0.14401,0 -0.19181,-0.15577 -0.10624,-0.34616 0.2098,-0.46675 -0.2408,-0.43748 -0.88798,0.0577 -0.62604,0.47899 -0.84115,2.57309 -0.29475,2.86937 0.45739,0.24801 0.67589,0.23266 0.88957,-0.0625 z m 2.66648,0.1108 c 0.65808,-0.21558 0.50677,-0.55224 -0.2482,-0.55224 -0.37169,0 -0.67579,-0.10385 -0.67579,-0.23077 0,-0.12693 0.43345,-0.23078 0.96323,-0.23078 0.92388,0 0.95977,-0.0306 0.87852,-0.75001 -0.0656,-0.58109 -0.22521,-0.76702 -0.70854,-0.82551 -1.48097,-0.17922 -2.89369,1.73464 -1.78931,2.42406 0.53829,0.33603 0.93285,0.37729 1.58009,0.16525 z m -0.65368,-1.69973 c 0,-0.31283 0.48038,-0.50709 0.65556,-0.2651 0.0838,0.1157 -0.0295,0.2699 -0.25164,0.34268 -0.22215,0.0728 -0.40392,0.0379 -0.40392,-0.0776 z m -7.066299,-0.37037 c 0.796739,-1.0837 1.399636,-2.01218 1.33977,-2.06329 -0.05987,-0.0511 -0.367661,-0.0351 -0.68399,0.0355 -0.361231,0.0806 -0.932018,0.69951 -1.534669,1.66395 l -0.959525,1.53556 -0.0078,-1.32695 c -0.0069,-1.17087 -0.07143,-1.32695 -0.548466,-1.32695 -0.600526,0 -0.67503,0.4831 -0.368731,2.39092 0.1432,0.89192 0.267313,1.06993 0.743367,1.06617 0.42162,-0.003 0.951311,-0.52118 2.020083,-1.97489 z m 4.291159,-3.47414 c -0.79026,-0.35349 -1.10326,-1.028 -0.96279,-2.07477 0.0668,-0.49767 0.41483,-0.84266 1.40944,-1.39704 2.86958,-1.59947 3.56324,-4.17715 1.71908,-6.3882 -1.18993,-1.42666 -4.15394,-1.94008 -6.158926,-1.06684 -1.613885,0.70291 -2.548515,2.06331 -2.548515,3.70949 0,1.14123 0.13098,1.49489 0.897477,2.42325 l 0.897476,1.08702 -1.503006,1.28315 -1.503006,1.28315 -0.827281,-0.67665 c -1.19146,-0.97452 -2.219642,-2.92226 -2.415807,-4.57639 l -0.168652,-1.42213 -0.801727,1.24013 c -1.288101,1.99246 -1.812301,2.42918 -2.915772,2.42918 -1.140947,0 -1.975673,-0.56226 -2.214838,-1.49189 -0.130215,-0.50614 0.09649,-1.09612 0.975414,-2.5384 2.056659,-3.3749 5.852118,-5.94883 10.004057,-6.78437 1.385333,-0.27879 3.838916,-0.34866 12.339036,-0.35139 l 10.60986,-0.003 v 4.61548 4.61548 h -3.05286 -3.05287 l -3.36711,2.66111 c -4.35699,3.44343 -5.80699,4.11813 -7.35868,3.42404 z"
         id="path183"
         inkscape:connector-curvature="0" />
      <path
         style="fill:#282526;stroke-width:0.24976322"
         d="m 85.409663,152.54667 v -0.57694 h 4.32504 c 2.378771,0 4.325039,-0.0757 4.325039,-0.16826 0,-0.0925 -0.972852,-1.00314 -2.161893,-2.02355 l -2.161893,-1.8553 5.54083,-4.81859 c 3.047456,-2.65022 5.555234,-4.72526 5.572844,-4.61119 0.0176,0.11406 0.007,0.31124 -0.0225,0.43816 -0.03,0.12693 0.0378,0.15194 0.15067,0.0556 0.11287,-0.0964 0.481,0.046 0.81809,0.31636 l 0.61287,0.49154 -0.93071,0.74938 c -0.73326,0.59039 -0.93072,0.92963 -0.93072,1.59899 0,2.44159 2.50495,3.46772 5.18814,2.12528 l 1.18851,-0.59463 2.49564,2.13948 2.49564,2.13948 -2.26592,1.88818 c -1.24625,1.0385 -2.20242,1.94238 -2.12481,2.00863 0.0776,0.0663 2.73612,0.12046 5.90781,0.12046 h 5.76672 v 0.57694 0.57693 H 102.30435 85.409663 Z m 11.285515,-3.17315 c 0.147839,-0.15865 0.89886,-1.15263 1.668937,-2.20883 l 1.400139,-1.92036 -0.744635,0.0742 c -0.595701,0.0593 -0.94886,0.37419 -1.765705,1.5742 l -1.021069,1.50004 -0.0053,-1.21157 c -0.0046,-1.05621 -0.07461,-1.21156 -0.54592,-1.21156 -0.478377,0 -0.540205,0.1528 -0.536939,1.32695 0.002,0.72982 0.07704,1.56061 0.166684,1.84619 0.177402,0.56514 0.951882,0.6943 1.383801,0.23077 z m 3.965292,-0.19954 c 0.59054,-0.39657 0.71134,-0.64522 0.64467,-1.32695 -0.075,-0.76682 -0.16012,-0.84532 -0.99015,-0.91314 -1.122232,-0.0917 -2.200524,0.6768 -2.200524,1.5683 0,1.19977 1.263384,1.53312 2.546004,0.67179 z m -1.35663,-0.52742 c -0.170911,-0.38024 0.30141,-1.06153 0.73593,-1.06153 0.38955,0 0.26852,0.8444 -0.165058,1.1516 -0.325951,0.23094 -0.434262,0.21386 -0.570872,-0.0901 z m 4.06832,0.61598 c 0.0988,-0.2197 0.0509,-0.43605 -0.10624,-0.48078 -0.49727,-0.14151 -0.3094,-0.89478 0.32242,-1.29283 0.4173,-0.26289 0.50215,-0.42263 0.27032,-0.50892 -0.18584,-0.0692 -0.33789,-0.27289 -0.33789,-0.4527 0,-0.17981 -0.14818,-0.32693 -0.32929,-0.32693 -0.43629,0 -1.67252,1.23807 -1.33278,1.33475 0.16625,0.0473 0.17462,0.342 0.0226,0.7946 -0.16005,0.47642 -0.14106,0.8229 0.0562,1.02583 0.42044,0.4325 1.2218,0.38055 1.43466,-0.093 z m 2.85175,0.0533 c 0.18509,-0.19039 0.29121,-0.35481 0.23584,-0.36539 -0.0554,-0.0106 -0.37431,-0.0451 -0.70875,-0.0768 -1.02366,-0.0969 -1.02846,-0.36551 -0.007,-0.36551 1.07576,0 1.46239,-0.44829 1.00959,-1.17059 -0.38552,-0.61498 -1.7111,-0.58188 -2.41182,0.0602 -0.61194,0.56076 -0.72609,1.56103 -0.22678,1.98729 0.45312,0.38684 1.70506,0.34573 2.10845,-0.0692 z m -0.86162,-1.65767 c 0.19513,-0.0667 0.42828,-0.0585 0.5181,0.0182 0.0898,0.0767 -0.0698,0.13123 -0.35479,0.12121 -0.3149,-0.0111 -0.37895,-0.0658 -0.16331,-0.13942 z M 101.946,143.5893 c -0.59475,-0.54047 -0.77197,-1.62992 -0.35619,-2.18954 0.1228,-0.16529 0.81476,-0.63261 1.53768,-1.03848 2.29207,-1.28686 3.09375,-3.32554 2.07833,-5.28528 -1.71871,-3.31707 -7.267084,-3.36489 -9.016087,-0.0777 -0.839222,1.57728 -0.486919,3.41603 0.895147,4.67198 l 0.5665,0.51481 -1.571106,1.32003 -1.571106,1.32002 -0.881652,-0.87073 c -1.244772,-1.22935 -2.040212,-2.79821 -2.204902,-4.34877 -0.167088,-1.57313 -0.422155,-1.50702 -1.511147,0.39167 -0.77402,1.34953 -1.330852,1.7414 -2.474441,1.7414 -1.058692,0 -1.664011,-0.36351 -2.009416,-1.20669 -0.280384,-0.68446 -0.213819,-0.91636 0.713519,-2.48569 1.216726,-2.05907 4.334964,-4.86915 6.479315,-5.83901 0.769455,-0.34801 2.339845,-0.83818 3.489756,-1.08926 1.906847,-0.41635 3.01423,-0.4565 12.58979,-0.4565 h 10.49904 v 4.61548 4.61548 h -3.13222 -3.13222 l -3.24005,2.59621 c -1.78202,1.42791 -3.68726,2.82933 -4.23386,3.11426 -1.31896,0.68756 -2.74915,0.68198 -3.51468,-0.0137 z"
         id="path181"
         inkscape:connector-curvature="0" />
      <path
         style="fill:#211d1e;stroke-width:0.24976322"
         d="m 85.409663,152.77744 c 0,-0.19039 0.212873,-0.35346 0.473052,-0.36238 0.404509,-0.0139 0.394717,-0.045 -0.06758,-0.21455 -0.329605,-0.12092 1.253079,-0.19834 4.054724,-0.19834 3.012633,0 4.409152,0.0732 4.054724,0.2126 l -0.54063,0.21259 0.54063,-0.0641 c 0.341053,-0.0404 0.511309,-0.21009 0.461202,-0.45959 -0.04369,-0.21752 0.03453,-0.39549 0.173815,-0.39549 0.139285,0 0.329864,-0.17046 0.423511,-0.3788 0.134564,-0.29937 0.0929,-0.32399 -0.198687,-0.11739 -0.202925,0.14378 -0.468495,0.18443 -0.590157,0.0903 -0.121661,-0.0941 -0.123948,-0.0278 -0.0051,0.14732 0.143343,0.21119 0.09934,0.28518 -0.130661,0.21973 -0.370583,-0.10546 -0.643123,-1.34584 -0.295713,-1.34584 0.113752,0 0.206822,-0.13352 0.206822,-0.29671 0,-0.16319 -0.216271,-0.29671 -0.480603,-0.29671 -0.360953,0 -0.408794,0.0739 -0.192164,0.29671 0.182265,0.18749 0.188936,0.29671 0.01812,0.29671 -0.407642,0 -0.900611,-0.59287 -0.672061,-0.80825 0.110215,-0.10386 0.06212,-0.12141 -0.106874,-0.039 -0.168996,0.0824 -0.456473,-0.004 -0.638838,-0.19123 -0.182365,-0.1876 -0.425133,-0.29172 -0.539486,-0.23138 -0.114353,0.0603 -0.532662,-0.10838 -0.929576,-0.37492 -0.682666,-0.45844 -0.697037,-0.50785 -0.26596,-0.91451 0.250636,-0.23644 0.561086,-0.37428 0.689889,-0.30632 0.128804,0.068 0.234188,-0.018 0.234188,-0.19095 0,-0.17298 0.450861,-0.67239 1.001914,-1.1098 0.551052,-0.4374 0.837823,-0.61104 0.637267,-0.38585 -0.200555,0.22519 -0.302415,0.46256 -0.226355,0.52749 0.07606,0.0649 0.329035,-0.22315 0.562167,-0.6402 0.233131,-0.41705 2.075033,-2.15258 4.093114,-3.85674 l 3.669233,-3.09848 0.80794,0.66083 c 0.87199,0.71322 1.09573,1.06106 0.35058,0.54504 -0.36333,-0.2516 -0.41283,-0.25356 -0.24078,-0.01 0.13933,0.19765 -0.0395,0.53542 -0.50149,0.94708 -0.5221,0.46525 -0.71987,0.88524 -0.72468,1.53898 -0.009,1.16907 0.17534,2.14126 0.44445,2.349 0.11794,0.091 0.13761,-0.0172 0.0437,-0.2405 -0.14462,-0.34396 -0.038,-0.32632 0.69721,0.11539 0.47737,0.28677 1.01751,0.67718 1.20032,0.86757 0.23183,0.24144 0.33498,0.2589 0.34097,0.0577 0.005,-0.15866 0.20309,-0.28847 0.4408,-0.28847 0.54756,0 2.28645,-0.69048 2.78486,-1.10582 0.32228,-0.26856 0.75509,0.004 2.90289,1.83033 l 2.52413,2.14595 -0.98703,0.86295 c -0.54287,0.47463 -1.1077,0.79929 -1.25518,0.72147 -0.14749,-0.0778 -0.19007,-0.0336 -0.0946,0.0982 0.0954,0.13184 -0.37233,0.66927 -1.03949,1.19428 -0.66716,0.52502 -1.21303,1.00436 -1.21303,1.06521 0,0.0608 2.70653,0.11883 6.01451,0.12885 3.30798,0.01 5.87537,0.0669 5.70531,0.12645 -0.17006,0.0595 -0.2471,0.31095 -0.17121,0.55872 0.13577,0.44322 -0.13257,0.45048 -16.65306,0.45048 -14.745171,0 -16.791054,-0.0422 -16.791054,-0.34616 z m 5.609036,-0.0557 c -1.003545,-0.0444 -2.645708,-0.0444 -3.649252,0 -1.003544,0.0444 -0.182463,0.0807 1.824626,0.0807 2.007088,0 2.82817,-0.0363 1.824626,-0.0807 z m 15.475701,-0.0189 c 2e-4,-0.17452 -12.175184,-0.10845 -12.380916,0.0672 -0.07186,0.0614 2.684412,0.10647 6.125046,0.10026 3.44064,-0.006 6.25578,-0.0816 6.25587,-0.16745 z m 1.22736,-0.0561 c 0.27736,-0.38313 0.0284,-0.43626 -0.35966,-0.0768 -0.19171,0.17758 -0.2293,0.32288 -0.0835,0.32288 0.14576,0 0.3452,-0.11076 0.4432,-0.24613 z m 10.90247,0.14003 c -0.18587,-0.15868 -9.17341,-0.1872 -9.3579,-0.0297 -0.0875,0.0747 2.01022,0.13578 4.66156,0.13578 2.65134,0 4.76469,-0.0478 4.69634,-0.1061 z m -11.46768,-0.56762 c 0.18409,-0.25429 -0.56888,-0.94461 -1.01952,-0.93468 -0.17522,0.004 -0.10571,0.11286 0.15446,0.24224 0.26018,0.12937 0.47305,0.38583 0.47305,0.56992 0,0.38156 0.16675,0.43368 0.39201,0.12252 z m -1.01889,-0.16918 c -0.17585,-0.15012 -11.063708,-0.0999 -11.241467,0.0519 -0.07377,0.063 2.45609,0.10329 5.621917,0.0896 3.16582,-0.0137 5.69462,-0.0774 5.61955,-0.14145 z m -7.826089,-0.91196 c -0.08982,-0.0767 -0.32297,-0.0849 -0.518104,-0.0182 -0.215639,0.0737 -0.151586,0.12835 0.163315,0.13942 0.284957,0.01 0.444612,-0.0445 0.354789,-0.12121 z m 5.479509,-0.0913 c 0,-0.12693 -0.27369,-0.22348 -0.60821,-0.21456 -0.58034,0.0155 -0.58343,0.0253 -0.0676,0.21456 0.29735,0.10908 0.57104,0.20563 0.60821,0.21455 0.0372,0.009 0.0676,-0.0876 0.0676,-0.21455 z m 4.18797,0.003 c 0.0947,-0.13082 -0.0138,-0.16951 -0.25436,-0.0907 -0.24382,0.0799 -0.41952,0.0143 -0.41952,-0.15648 0,-0.16166 -0.073,-0.2316 -0.16222,-0.15543 -0.20262,0.17298 0.11129,0.63075 0.43254,0.63075 0.13112,0 0.31273,-0.10266 0.40356,-0.22813 z m -6.15338,-0.14207 c -0.0898,-0.0767 -0.32297,-0.0849 -0.51811,-0.0182 -0.21564,0.0737 -0.15158,0.12835 0.16332,0.13942 0.28495,0.01 0.44461,-0.0445 0.35479,-0.1212 z m 3.11425,-0.0134 c -0.42905,-0.1478 -0.4417,-0.53949 -0.0174,-0.53949 0.44572,0 1.57173,-0.93813 1.57173,-1.30948 0,-0.16826 -0.21287,-0.3153 -0.47305,-0.32675 -0.26018,-0.0114 -0.0756,-0.11873 0.41019,-0.23841 0.75939,-0.18709 0.84468,-0.27913 0.60821,-0.65634 -0.37522,-0.59855 -0.34698,-0.83624 0.14975,-1.2603 0.38616,-0.32968 0.38292,-0.39838 -0.0357,-0.75574 -0.43371,-0.37027 -0.44826,-0.36033 -0.25063,0.17127 0.1847,0.49681 0.15857,0.52806 -0.2183,0.26103 -0.23547,-0.16683 -0.76999,-0.25946 -1.18783,-0.20585 -0.71479,0.0917 -0.70682,0.0995 0.13476,0.13206 0.49196,0.019 0.82572,0.12956 0.74168,0.24565 -0.084,0.11608 2e-5,0.26365 0.18678,0.32794 0.18677,0.0643 -0.0988,0.12507 -0.63463,0.13509 -1.24538,0.0233 -2.30778,0.82086 -2.17609,1.63364 0.12927,0.79783 0.53261,1.15387 1.30715,1.15387 0.36225,0 0.59359,0.0899 0.51409,0.19968 -0.0795,0.10983 -1.02941,0.17114 -2.1109,0.13625 l -1.96634,-0.0634 1.08126,0.34488 c 0.5947,0.18969 1.32455,0.43289 1.62189,0.54047 0.29735,0.10757 0.66227,0.19441 0.81095,0.19298 0.14867,-0.001 0.11826,-0.055 -0.0676,-0.119 z m -1.34643,-0.69941 c 0.26301,-0.0585 0.62793,-0.0547 0.81094,0.009 0.18302,0.0632 -0.0322,0.11109 -0.47819,0.10638 -0.44602,-0.005 -0.59576,-0.0564 -0.33275,-0.11493 z m 1.7688,-2.53623 c 0.19513,-0.0667 0.42828,-0.0585 0.5181,0.0182 0.0898,0.0767 -0.0698,0.13123 -0.35479,0.12121 -0.3149,-0.0111 -0.37895,-0.0658 -0.16331,-0.13942 z m 1.40225,3.29999 c 0,-0.0487 -0.30042,-0.13751 -0.6676,-0.19744 -0.36719,-0.0599 -0.60329,-0.0201 -0.52468,0.0885 0.13842,0.19121 1.19228,0.28751 1.19228,0.10895 z m -12.061028,-0.50044 c 0.09231,-0.20537 0.04699,-0.298 -0.106236,-0.21715 -0.146971,0.0776 -0.267219,0.23871 -0.267219,0.35815 0,0.33195 0.193752,0.2588 0.373455,-0.141 z m 1.586328,0.20531 c -0.185841,-0.064 -0.489946,-0.064 -0.675787,0 -0.185842,0.064 -0.03379,0.11641 0.337894,0.11641 0.371683,0 0.523735,-0.0524 0.337893,-0.11641 z m 3.514095,-0.01 c -0.334515,-0.055 -0.881903,-0.055 -1.216418,0 -0.334514,0.055 -0.06082,0.10001 0.608209,0.10001 0.669029,0 0.942724,-0.045 0.608209,-0.10001 z m -2.094941,-0.29868 c -0.09189,-0.12692 -0.288706,-0.23077 -0.437379,-0.23077 -0.148673,0 -0.195136,0.10385 -0.103251,0.23077 0.09189,0.12693 0.288705,0.23078 0.437379,0.23078 0.148673,0 0.195136,-0.10385 0.103251,-0.23078 z m 3.850306,-0.0405 c -0.42014,-0.12954 -0.66716,-0.3373 -0.56645,-0.47643 0.10557,-0.14583 0.051,-0.17938 -0.13347,-0.0821 -0.60209,0.31768 -0.30245,0.71472 0.56698,0.75128 l 0.87799,0.0369 z m 6.82713,0.16949 c 0,-0.056 -0.12164,-0.16595 -0.27031,-0.24439 -0.14867,-0.0785 -0.27032,-0.0327 -0.27032,0.10176 0,0.13442 0.12165,0.2444 0.27032,0.2444 0.14867,0 0.27031,-0.0458 0.27031,-0.10177 z m -12.09659,-0.28184 c -0.185841,-0.064 -0.489946,-0.064 -0.675787,0 -0.185842,0.064 -0.03379,0.1164 0.337894,0.1164 0.371683,0 0.523735,-0.0524 0.337893,-0.1164 z m 3.643621,0.0134 c -0.08982,-0.0767 -0.322971,-0.0849 -0.518104,-0.0182 -0.215639,0.0737 -0.151586,0.12835 0.163315,0.13942 0.284957,0.01 0.444608,-0.0445 0.354789,-0.12121 z m 7.101399,-0.20673 c 0.42813,-0.44041 0.0266,-0.43594 -0.65987,0.007 -0.42006,0.27124 -0.44014,0.33882 -0.10068,0.33882 0.23322,0 0.57547,-0.15577 0.76055,-0.34616 z m -8.74662,-0.23077 c -0.22301,-0.19039 -0.471164,-0.34616 -0.551454,-0.34616 -0.08029,0 -0.07596,0.15577 0.0096,0.34616 0.08558,0.19039 0.333731,0.34616 0.551454,0.34616 0.343331,0 0.342056,-0.0459 -0.0096,-0.34616 z m 10.72949,0.0356 c 0.17314,0.0846 0.2211,0.0658 0.10656,-0.0417 -0.29938,-0.28114 -1.27204,-0.30483 -1.46685,-0.0357 -0.091,0.12572 -0.0334,0.15892 0.12792,0.0738 0.16137,-0.0851 0.3849,-0.0284 0.49673,0.12606 0.15814,0.21845 0.22749,0.21897 0.31208,0.002 0.0598,-0.1532 0.25042,-0.20932 0.42356,-0.12472 z m -12.167187,-0.21552 c -0.07124,-0.099 0.28429,-0.72207 0.790059,-1.38465 2.301191,-3.01464 2.567658,-3.74319 1.369074,-3.74319 h -0.621812 l 0.606667,0.39872 0.606667,0.39872 -0.722823,0.005 c -0.602183,0.004 -0.848103,0.21635 -1.473442,1.2707 -0.494892,0.83441 -0.822807,1.16856 -0.962506,0.98079 -0.299108,-0.40201 -0.270426,-0.6847 0.0522,-0.51448 0.157532,0.0831 0.139238,-0.10573 -0.04339,-0.44792 -0.192771,-0.3612 -0.536531,-0.59164 -0.882579,-0.59164 -0.537247,0 -0.561617,0.0979 -0.467046,1.87574 0.06716,1.26254 0.0076,1.82713 -0.182054,1.72704 -0.155007,-0.0818 -0.339458,-0.0691 -0.409892,0.0281 -0.07043,0.0973 0.456591,0.17685 1.171167,0.17685 0.714576,0 1.240945,-0.081 1.169709,-0.17996 z m 4.078197,-0.64546 c 0.79471,-0.8063 0.85245,-1.10051 0.33464,-1.70508 -0.89138,-1.04072 -3.128527,-0.13474 -3.142903,1.27278 -0.01348,1.31964 1.677178,1.5799 2.808263,0.4323 z m -1.542053,-0.14416 c -0.188146,-0.27198 0.287164,-1.22277 0.611273,-1.22277 0.41281,0 0.33857,0.82439 -0.102381,1.13681 -0.209774,0.14864 -0.438775,0.18731 -0.508892,0.086 z m 3.970003,0.48916 c 0.0902,-0.20077 0.16221,-0.53828 0.15994,-0.75002 -0.004,-0.33556 -0.0416,-0.34054 -0.29582,-0.0388 -0.24258,0.28789 -0.26463,0.27501 -0.13102,-0.0766 0.0884,-0.2325 0.16066,-0.51808 0.16066,-0.63463 0,-0.11654 0.18246,-0.21189 0.40547,-0.21189 0.22301,0 0.40548,-0.14878 0.40548,-0.33061 0,-0.18184 0.26309,-0.4019 0.58466,-0.48903 0.51961,-0.1408 0.53441,-0.18243 0.13301,-0.37421 -0.50534,-0.24143 -1.08148,-0.0451 -0.84129,0.2867 0.0855,0.11815 0.0125,0.21482 -0.16227,0.21482 -0.18466,0 -0.2586,-0.19326 -0.17649,-0.46131 0.0777,-0.25373 0.0123,-0.5294 -0.1454,-0.6126 -0.16857,-0.0889 -0.20723,-0.0415 -0.0938,0.11516 0.12158,0.16793 -0.01,0.26643 -0.35522,0.26643 -0.32177,0 -0.49893,-0.11912 -0.42903,-0.28847 0.15075,-0.36524 -0.56006,-1.18493 -0.8808,-1.0157 -0.13205,0.0697 -0.55746,-0.0139 -0.94535,-0.18568 -0.6351,-0.2813 -0.70162,-0.27137 -0.66887,0.0999 0.0284,0.32202 0.23135,0.39676 0.92736,0.34153 0.95932,-0.0761 1.13109,0.12952 0.4885,0.58482 -0.22137,0.15684 -0.31603,0.40322 -0.21034,0.54749 0.27658,0.37757 0.37958,0.81812 0.46599,1.99313 0.042,0.57116 0.0922,1.11637 0.11161,1.21156 0.0677,0.33237 1.33034,0.17003 1.49305,-0.19195 z m -1.55557,-2.75042 c 0.0856,-0.19039 0.0123,-0.34616 -0.16295,-0.34616 -0.19547,0 -0.14945,-0.14436 0.11911,-0.37363 0.24071,-0.2055 0.51957,-0.3037 0.61969,-0.21823 0.10012,0.0855 0.0197,0.24104 -0.17862,0.3457 -0.29021,0.15312 -0.29253,0.20968 -0.0119,0.28954 0.19211,0.0547 0.25939,0.2227 0.14979,0.3741 -0.28696,0.39639 -0.71945,0.33876 -0.53513,-0.0713 z m 5.56995,2.50059 c -0.18677,-0.0643 -0.25921,-0.2279 -0.16097,-0.3636 0.10645,-0.14705 0.0508,-0.17926 -0.13788,-0.0797 -0.37215,0.19635 -0.14869,0.60475 0.31649,0.57842 0.23042,-0.013 0.22541,-0.0514 -0.0176,-0.13509 z m 3.00316,-0.78025 c -0.12738,-0.10861 -0.24979,0.0781 -0.27327,0.41687 -0.0366,0.52781 -0.004,0.55533 0.23075,0.19676 0.15092,-0.23024 0.16996,-0.50496 0.0425,-0.61363 z m -17.833237,0.34464 c 0.09231,-0.20537 0.04699,-0.298 -0.106237,-0.21715 -0.14697,0.0775 -0.267219,0.23871 -0.267219,0.35815 0,0.33195 0.193753,0.2588 0.373456,-0.141 z m -0.759709,-0.7303 c -0.02674,-0.15556 -0.152741,-0.36373 -0.279996,-0.4626 -0.127255,-0.0989 -0.14387,-0.0499 -0.03692,0.10871 0.237891,0.35292 -0.27318,0.38931 -0.527802,0.0376 -0.12831,-0.17724 -0.266003,-0.17884 -0.469101,-0.005 -0.446175,0.38091 0.557275,1.24671 1.01856,0.87884 0.189137,-0.15084 0.322005,-0.40153 0.295262,-0.55709 z m -1.111594,0.15 c -0.290932,-0.40188 0.04042,-0.48699 0.411166,-0.10561 0.213211,0.21932 0.233717,0.35174 0.05447,0.35174 -0.158103,0 -0.367641,-0.11076 -0.465639,-0.24613 z m 20.69021,-0.2218 c 0,-0.11545 -0.20358,-0.14321 -0.4524,-0.0617 -0.34019,0.11145 -0.41017,0.0543 -0.28212,-0.23063 0.188,-0.41827 -0.21323,-0.76474 -0.47188,-0.40746 -0.0894,0.12346 -0.32875,0.17 -0.53196,0.10342 -0.20321,-0.0666 -0.44892,-0.0113 -0.54602,0.12283 -0.0994,0.13724 -0.0227,0.19636 0.1754,0.13521 0.19356,-0.0598 0.65264,0.0891 1.02016,0.33076 0.65137,0.42831 1.08882,0.43136 1.08882,0.008 z m -18.892063,-0.2911 c -0.196885,-0.16809 -0.20017,-0.33516 -0.01043,-0.53035 0.192646,-0.19817 0.174964,-0.33879 -0.05806,-0.46174 -0.187731,-0.0991 -0.38195,-0.0567 -0.441686,0.0963 -0.05864,0.15019 -0.248283,0.20375 -0.421426,0.11903 -0.173143,-0.0847 -0.04,0.10407 0.295875,0.41954 0.335875,0.31547 0.518337,0.66041 0.405472,0.76653 -0.112864,0.10613 -0.04256,0.11267 0.156239,0.0145 0.255317,-0.12604 0.277049,-0.25049 0.07401,-0.42382 z m 15.821093,-0.78578 c 0.11935,0.10189 0.0381,0.28187 -0.18064,0.39995 -0.33655,0.18171 -0.32742,0.21524 0.0594,0.21823 0.58902,0.005 0.92695,-0.45772 0.49949,-0.68326 -0.18101,-0.0955 -0.28782,-0.46263 -0.23737,-0.81584 0.0769,-0.5387 -0.0172,-0.65296 -0.58406,-0.70904 -0.37168,-0.0368 -0.52297,-0.0126 -0.3362,0.0536 0.18676,0.0663 0.2592,0.23151 0.16097,0.36721 -0.10557,0.14582 -0.051,0.17938 0.13347,0.082 0.47147,-0.24876 0.38646,0.67646 -0.0934,1.01645 -0.22301,0.15801 -0.40548,0.39827 -0.40548,0.53391 0,0.13565 0.17252,0.0452 0.38338,-0.20097 0.21085,-0.24618 0.48102,-0.36423 0.60038,-0.26233 z m 1.71939,0.0448 c 0,-0.0635 -0.24328,-0.32309 -0.54063,-0.57694 -0.34655,-0.29586 -0.54063,-0.35385 -0.54063,-0.16154 0,0.165 0.14597,0.42462 0.32438,0.57694 0.32906,0.28092 0.75688,0.37223 0.75688,0.16154 z m -10.136807,-0.34616 c 0.09189,-0.12693 0.04542,-0.23078 -0.103251,-0.23078 -0.148673,0 -0.345493,0.10385 -0.437379,0.23078 -0.09189,0.12692 -0.04542,0.23077 0.103252,0.23077 0.148673,0 0.345493,-0.10385 0.437378,-0.23077 z m 0.786087,-0.34617 c -0.46923,-0.61138 -0.65093,-0.71261 -0.65093,-0.36264 0,0.21707 0.74717,0.93958 0.97164,0.93958 0.0672,0 -0.0772,-0.25962 -0.32071,-0.57694 z m -3.190531,0.0762 c 0.131422,-0.18153 0.04809,-0.22171 -0.254361,-0.12263 -0.256763,0.0841 -0.449817,0.0349 -0.449817,-0.11463 0,-0.14409 -0.073,-0.19967 -0.162225,-0.1235 -0.202624,0.17299 0.111292,0.63076 0.43254,0.63076 0.131125,0 0.326363,-0.1215 0.433863,-0.27 z m -2.954457,-0.57417 c -0.09783,-0.0835 -0.05137,-0.28197 0.103231,-0.44101 0.197848,-0.20352 0.181864,-0.34151 -0.05397,-0.46594 -0.18773,-0.099 -0.381949,-0.0567 -0.441686,0.0963 -0.05864,0.15019 -0.248282,0.20265 -0.421425,0.11657 -0.173144,-0.0861 -0.08308,0.0691 0.20014,0.34473 0.283221,0.27567 0.577188,0.50121 0.653261,0.50121 0.07607,0 0.05828,-0.0683 -0.03955,-0.15184 z m 11.676668,-0.14524 c 0.31891,0.093 0.29123,0.0198 -0.10052,-0.26593 -0.53606,-0.391 -0.53548,-0.3934 0.068,-0.28334 0.33472,0.061 0.54041,0.0168 0.4571,-0.0983 -0.25319,-0.34975 -1.27696,-0.24993 -1.11573,0.10878 0.0786,0.17493 0.0308,0.43455 -0.10623,0.57694 -0.16968,0.17629 -0.15243,0.19101 0.0541,0.0462 0.16679,-0.117 0.5013,-0.15496 0.74337,-0.0843 z m -8.171355,-0.27985 c 0.22301,-0.19039 0.28653,-0.34616 0.141156,-0.34616 -0.145374,0 -0.208211,-0.23366 -0.139638,-0.51924 0.07193,-0.29957 -0.05313,-0.19073 -0.295622,0.25727 -0.586391,1.08336 -0.491758,1.27904 0.294104,0.60813 z m 6.703675,0.13691 c 0.0833,-0.11509 -0.092,-0.1549 -0.38952,-0.0885 -0.63118,0.14091 -0.71097,0.29772 -0.15148,0.29772 0.21424,0 0.45769,-0.0942 0.541,-0.20925 z m 2.52852,-0.93412 c -0.18147,-0.24808 -0.3823,-0.40637 -0.44628,-0.35174 -0.11586,0.0989 0.47324,0.80279 0.67188,0.80279 0.0574,0 -0.0441,-0.20298 -0.2256,-0.45105 z m -9.811441,-0.0105 c 0.09189,-0.12693 0.03824,-0.23077 -0.119205,-0.23077 -0.157447,0 -0.286268,0.10384 -0.286268,0.23077 0,0.12693 0.05364,0.23077 0.119205,0.23077 0.06556,0 0.194383,-0.10384 0.286268,-0.23077 z m -1.641809,-0.9231 c 0.102841,0 0.12684,0.0831 0.05333,0.18462 -0.07351,0.10154 0.135769,0.18462 0.46506,0.18462 0.50376,0 0.593992,-0.12144 0.568951,-0.76573 -0.01637,-0.42116 0.101691,-0.85522 0.262353,-0.96459 0.349854,-0.23817 1.501974,-0.20068 2.001537,0.0651 0.296923,0.15799 0.296923,0.10651 0,-0.30234 -0.298122,-0.41049 -0.296636,-0.52526 0.0089,-0.68762 0.25975,-0.13803 0.27818,-0.24162 0.06317,-0.35507 -0.166971,-0.0881 -0.21987,-0.28281 -0.117552,-0.4327 0.102318,-0.14988 -0.08749,-0.0675 -0.421803,0.18313 -0.33431,0.2506 -0.476861,0.49291 -0.316781,0.53847 0.44091,0.12547 0.348253,0.65976 -0.114417,0.65976 -0.22301,0 -0.405472,-0.10925 -0.405472,-0.24278 0,-0.13353 -0.729851,0.37381 -1.62189,1.12741 -0.892039,0.75361 -1.62189,1.46723 -1.62189,1.58582 0,0.11858 0.227141,-0.008 0.504758,-0.28125 0.277616,-0.27327 0.5889,-0.49686 0.69174,-0.49686 z m 0.319629,0.0406 c -0.109462,-0.15121 -0.0088,-0.43731 0.223685,-0.63579 0.453398,-0.38708 0.507089,-0.24855 0.180023,0.46448 -0.141732,0.30899 -0.265897,0.36167 -0.403708,0.17131 z m 3.726594,0.58899 c 0.105683,0.0902 0.109874,-0.019 0.0093,-0.24273 -0.100561,-0.22372 -0.202232,-0.37633 -0.225934,-0.33913 -0.0237,0.0372 -0.221548,0.27535 -0.439657,0.5292 -0.357345,0.4159 -0.354004,0.43322 0.03378,0.17508 0.236689,-0.15755 0.516813,-0.21264 0.622496,-0.12242 z m 0.513007,-0.85777 c -0.0773,-0.25243 -0.24308,-0.40487 -0.368356,-0.33877 -0.266064,0.14038 -0.02475,0.79772 0.292856,0.79772 0.11885,0 0.15282,-0.20653 0.0755,-0.45895 z m -0.401635,-1.04719 c -0.08323,-0.0711 -0.234376,0.057 -0.335887,0.28462 -0.146696,0.3289 -0.115647,0.35541 0.151321,0.12919 0.184738,-0.15654 0.267791,-0.34276 0.184566,-0.41381 z m 0.145485,-0.69617 c -0.088,-0.19586 -0.218042,-0.30662 -0.288899,-0.24613 -0.07086,0.0605 -0.04865,0.22075 0.04935,0.35612 0.266539,0.36819 0.422329,0.29666 0.239549,-0.10999 z m 0.69769,-0.8926 c 0.24239,-0.24933 0.24036,-0.36581 -0.009,-0.4972 -0.20618,-0.10878 -0.25461,-0.0741 -0.13233,0.0948 0.10608,0.14654 0.064,0.26643 -0.0934,0.26643 -0.15744,0 -0.28626,0.10385 -0.28626,0.23078 0,0.31628 0.14702,0.2895 0.52065,-0.0949 z m -0.833884,-0.0782 c -0.0236,-0.0952 0.04937,-0.35292 0.162174,-0.57271 0.16421,-0.31996 0.32097,-0.35193 0.78629,-0.16035 0.56322,0.23188 0.56496,0.22818 0.0565,-0.11962 -0.47416,-0.32431 -0.39506,-0.46977 0.20691,-0.3805 0.12256,0.0182 0.13345,-0.0904 0.0242,-0.24132 -0.13783,-0.1904 -0.38367,-0.0907 -0.80324,0.32572 -0.33253,0.33004 -0.652447,0.55924 -0.710918,0.50932 -0.05847,-0.0499 -0.124243,0.11248 -0.146161,0.36089 -0.02192,0.24841 0.07423,0.45165 0.213665,0.45165 0.139433,0 0.234203,-0.0779 0.2106,-0.17308 z m -7.796219,9.51942 c -0.504349,-0.44424 -0.801905,-0.80441 -0.661235,-0.80038 0.350984,0.0101 2.189505,1.60809 1.850089,1.60809 -0.149521,0 -0.684505,-0.36347 -1.188854,-0.80771 z m 9.750953,-6.49279 c -0.93844,-1.01853 -0.54506,-2.38098 0.82764,-2.86639 2.79443,-0.98818 3.77599,-4.50259 1.82261,-6.52573 -1.09031,-1.12925 -2.22053,-1.60015 -3.89005,-1.62075 -1.634548,-0.0202 -2.814514,0.50105 -4.022297,1.77676 -0.755225,0.7977 -0.839604,1.04463 -0.839604,2.45709 0,1.41903 0.08275,1.65817 0.859156,2.48298 l 0.859156,0.91272 -1.562268,1.31983 -1.562267,1.31983 -0.759248,-0.76648 c -1.129771,-1.14053 -2.030097,-2.9891 -2.251841,-4.62353 l -0.196824,-1.45075 -0.866596,1.26926 c -0.476628,0.69809 -0.867738,1.39317 -0.869133,1.54463 -0.0039,0.41835 -1.114779,0.99388 -1.918434,0.99388 -0.392889,0 -1.048469,-0.22438 -1.456846,-0.49862 -0.644875,-0.43306 -0.725981,-0.6227 -0.616849,-1.44234 0.181785,-1.3653 2.206357,-4.11341 4.158687,-5.64492 0.910704,-0.71441 2.465703,-1.64258 3.455552,-2.0626 3.095177,-1.31339 4.277676,-1.42021 15.770456,-1.42466 l 10.33954,-0.004 v 4.61548 4.61548 h -3.12223 -3.12223 l -3.49457,2.7406 c -1.92202,1.50733 -3.91096,2.90928 -4.41987,3.11545 -1.39213,0.56398 -2.46068,0.48415 -3.12164,-0.23321 z"
         id="path179"
         inkscape:connector-curvature="0" />
      <path
         style="fill:#191617;stroke-width:0.24976322"
         d="m 85.413803,152.71975 c 0.0029,-0.2861 0.06632,-0.32026 0.217392,-0.11718 0.165288,0.2222 3.949179,0.30046 16.822965,0.34797 l 16.60971,0.0613 -16.8271,0.0559 c -15.871897,0.0527 -16.826872,0.033 -16.822967,-0.34797 z m 8.781096,-0.28847 c 0.09189,-0.12693 0.288706,-0.23077 0.437379,-0.23077 0.148673,0 0.195136,0.10384 0.103251,0.23077 -0.09189,0.12693 -0.288705,0.23077 -0.437379,0.23077 -0.148673,0 -0.195136,-0.10384 -0.103251,-0.23077 z m -6.690295,-0.40247 c 1.226554,-0.0428 3.233643,-0.0428 4.460197,0 1.226554,0.0428 0.22301,0.0778 -2.230098,0.0778 -2.453109,0 -3.456653,-0.035 -2.230099,-0.0778 z m 18.573626,-0.29978 c -0.43806,-0.41324 -0.44323,-0.45295 -0.0419,-0.32148 0.26038,0.0853 0.4579,0.0398 0.4579,-0.10545 0,-0.14051 0.13654,-0.25546 0.30341,-0.25546 0.21369,0 0.20681,0.0994 -0.0233,0.33605 -0.17967,0.18483 -0.24821,0.44445 -0.1523,0.57693 0.28887,0.39903 -0.0113,0.27174 -0.54384,-0.23059 z m 4.26799,0.29927 c 1.59823,-0.0408 4.21353,-0.0408 5.81177,0 1.59824,0.0408 0.29059,0.0742 -2.90589,0.0742 -3.19647,0 -4.50412,-0.0334 -2.90588,-0.0742 z m -16.401353,-0.54963 c -0.28619,-0.23762 -0.377422,-0.43203 -0.202736,-0.43203 0.174686,0 0.378432,0 0.452768,0 0.07434,0 0.124768,0.0663 0.11207,0.14728 -0.0127,0.081 0.12193,0.22379 0.299175,0.31731 0.177244,0.0935 0.218044,0.22166 0.09067,0.28476 -0.127378,0.0631 -0.465752,-0.0797 -0.751943,-0.31732 z m 13.089993,0.27391 c 0,-0.11944 0.12025,-0.2806 0.26722,-0.35815 0.15323,-0.0808 0.19855,0.0118 0.10624,0.21715 -0.17971,0.3998 -0.37346,0.47295 -0.37346,0.141 z m -9.117985,-0.86587 c 0.263007,-0.0585 0.627932,-0.0547 0.810944,0.009 0.183012,0.0632 -0.03218,0.11109 -0.478195,0.10639 -0.44602,-0.005 -0.595757,-0.0564 -0.332749,-0.11494 z m 2.039112,0.002 c 0.195133,-0.0667 0.428283,-0.0585 0.518103,0.0182 0.0898,0.0767 -0.0698,0.13123 -0.35479,0.1212 -0.314899,-0.0111 -0.378952,-0.0657 -0.163313,-0.13942 z m 7.619503,-0.11162 c 0,-0.10577 0.11446,-0.19231 0.25436,-0.19231 0.1399,0 0.31701,0.0865 0.39358,0.19231 0.0766,0.10577 -0.0379,0.19231 -0.25436,0.19231 -0.21647,0 -0.39358,-0.0865 -0.39358,-0.19231 z m -6.55514,-0.11438 c 0.18584,-0.064 0.48995,-0.064 0.67579,0 0.18584,0.064 0.0338,0.11641 -0.33789,0.11641 -0.37169,0 -0.52374,-0.0524 -0.3379,-0.11641 z m 1.89221,0 c 0.18584,-0.064 0.48994,-0.064 0.67578,0 0.18585,0.064 0.0338,0.11641 -0.33789,0.11641 -0.37168,0 -0.52374,-0.0524 -0.33789,-0.11641 z M 92.716446,150.4697 c 0,-0.12692 0.09832,-0.36304 0.218498,-0.52469 0.164734,-0.2216 0.346632,-0.1658 0.739227,0.22679 0.459707,0.4597 0.46288,0.48236 0.02707,0.19338 -0.426608,-0.28289 -0.527006,-0.28235 -0.739227,0.004 -0.135065,0.18222 -0.245573,0.22747 -0.245573,0.10054 z m 6.428596,-0.0423 c 0.195133,-0.0667 0.42828,-0.0585 0.518104,0.0182 0.08982,0.0767 -0.06983,0.13123 -0.354789,0.12121 -0.314901,-0.0111 -0.378954,-0.0658 -0.163315,-0.13943 z m 9.104758,-0.1609 c -0.49787,-0.3108 -0.35829,-0.83814 0.22017,-0.83179 0.19429,0.002 0.16117,0.0936 -0.0835,0.23078 -0.3563,0.19968 -0.35717,0.25374 -0.007,0.44583 0.26561,0.14575 0.46689,0.12653 0.60407,-0.0577 0.15824,-0.2125 0.20669,-0.21283 0.20987,-0.001 0.007,0.44409 -0.42006,0.54104 -0.94344,0.21432 z m -10.538893,-0.14036 c -0.0947,-0.13081 0.0138,-0.1695 0.254362,-0.0907 0.468298,0.15341 0.55398,0.31882 0.16515,0.31882 -0.139899,0 -0.328679,-0.10266 -0.419512,-0.22813 z m 4.137283,0.0705 c 0.19514,-0.0667 0.42828,-0.0585 0.51811,0.0182 0.0898,0.0767 -0.0698,0.13123 -0.35479,0.12121 -0.3149,-0.0111 -0.37896,-0.0658 -0.16332,-0.13943 z m 2.16252,0 c 0.19513,-0.0667 0.42828,-0.0585 0.5181,0.0182 0.0898,0.0767 -0.0698,0.13123 -0.35478,0.12121 -0.31491,-0.0111 -0.37896,-0.0658 -0.16332,-0.13943 z m -12.248645,-0.53468 c -0.269095,-0.25385 -0.378029,-0.46155 -0.242076,-0.46155 0.135952,0 0.39912,0.2077 0.584815,0.46155 0.185696,0.25385 0.294631,0.46155 0.242077,0.46155 -0.05255,0 -0.315721,-0.2077 -0.584816,-0.46155 z m 6.443099,-0.13035 c -0.700149,-0.55396 -0.77035,-0.56593 -1.095187,-0.18667 -0.801808,0.93614 -0.260283,-0.0336 0.774185,-1.38643 0.924232,-1.20864 1.221117,-1.4429 1.689468,-1.3331 0.55218,0.12946 0.55296,0.13569 0.02757,0.22097 -0.651941,0.10582 -1.472417,0.93068 -1.480721,1.48863 -0.0033,0.22212 -0.13392,0.40386 -0.290253,0.40386 -0.156333,0 0.04143,0.25767 0.43948,0.57261 0.398047,0.31493 0.83006,0.5165 0.960029,0.44793 0.129969,-0.0686 0.236308,-0.0147 0.236308,0.11971 0,0.40688 -0.471736,0.27686 -1.260877,-0.34751 z m 3.828866,0.36113 -0.81094,-0.17617 0.87852,-0.0273 c 0.48319,-0.015 0.87853,0.0765 0.87853,0.20348 0,0.12692 -0.0304,0.21848 -0.0676,0.20347 -0.0372,-0.015 -0.43251,-0.10658 -0.87853,-0.20347 z m 2.97347,-0.005 c -0.73661,-0.16446 -0.70804,-0.17782 0.31172,-0.14577 0.61747,0.0194 1.06645,0.11317 0.99773,0.20836 -0.13946,0.19319 -0.17053,0.1917 -1.30945,-0.0626 z m -9.393447,-0.14794 c 0.185841,-0.064 0.489946,-0.064 0.675787,0 0.185842,0.064 0.03379,0.1164 -0.337893,0.1164 -0.371684,0 -0.523736,-0.0524 -0.337894,-0.1164 z m 5.175557,-0.6629 c 0.92308,-0.89755 0.97205,-1.05634 0.55372,-1.79564 -0.27552,-0.48693 -0.27093,-0.48884 0.13516,-0.0561 0.23121,0.24638 0.42039,0.61711 0.42039,0.82384 0,0.38805 -1.37502,1.84365 -1.74159,1.84365 -0.11364,0 0.1709,-0.36709 0.63232,-0.81574 z m 2.57018,0.54931 c -0.12181,-0.16826 -0.0739,-0.20366 0.13004,-0.096 0.31872,0.16816 0.31382,0.11311 -0.14225,-1.5991 -0.0956,-0.3588 -0.0676,-0.38449 0.12562,-0.11539 0.39326,0.54768 0.64808,2.07697 0.34608,2.07697 -0.14663,0 -0.3534,-0.1199 -0.45949,-0.26643 z m 5.96379,0.0233 c -0.12781,-0.17656 -0.0998,-0.23171 0.0717,-0.14121 0.38843,0.20495 0.9752,-0.45021 0.7318,-0.8171 -0.1598,-0.24086 -0.12714,-0.24232 0.16895,-0.008 0.30684,0.2433 0.27439,0.37012 -0.19785,0.77329 -0.42493,0.36277 -0.61686,0.41048 -0.77462,0.19255 z m -2.82935,-0.53987 c 0,-0.0499 0.18878,-0.15254 0.41951,-0.22813 0.24056,-0.0788 0.34907,-0.0401 0.25436,0.0907 -0.15874,0.21929 -0.67387,0.32434 -0.67387,0.13744 z m -7.159374,-0.36537 c -0.09862,-0.13623 -0.03343,-0.21916 0.144882,-0.18428 0.178308,0.0349 0.385593,-0.0809 0.460633,-0.25718 0.08288,-0.19475 0.01778,-0.25799 -0.16585,-0.1611 -0.192446,0.10154 -0.243792,0.0294 -0.141306,-0.19865 0.223744,-0.49777 0.643775,-0.44875 0.643775,0.0751 0,0.54951 -0.686783,1.07879 -0.942134,0.72606 z m -8.879313,-0.15933 c -0.09912,-0.0846 -0.18021,-0.26116 -0.18021,-0.39232 0,-0.1446 0.125904,-0.13098 0.319872,0.0346 0.17593,0.15019 0.257025,0.32674 0.18021,0.39231 -0.07681,0.0656 -0.220757,0.05 -0.319872,-0.0346 z m 0.740209,-0.3654 -0.514947,-0.51924 0.608209,0.43963 c 0.571566,0.41313 0.731267,0.59886 0.514946,0.59886 -0.05129,0 -0.324988,-0.23366 -0.608208,-0.51925 z m 3.755938,-0.63462 c 0,-0.6981 0.05067,-0.98368 0.112611,-0.63463 0.06194,0.34904 0.06194,0.92021 0,1.26925 -0.06194,0.34905 -0.112611,0.0635 -0.112611,-0.63462 z m 15.87617,1.02116 c 0.0141,-0.35043 0.74016,-1.06398 0.87699,-0.86189 0.0696,0.10279 -0.10118,0.38679 -0.37952,0.63112 -0.27833,0.24433 -0.50219,0.34818 -0.49747,0.23077 z m -4.06332,-0.18654 c 0,-0.0487 0.24346,-0.14282 0.54101,-0.20925 0.29755,-0.0664 0.47283,-0.0266 0.38952,0.0885 -0.1455,0.20098 -0.93053,0.30288 -0.93053,0.12078 z M 90.097994,147.6542 c 0.29796,-0.29871 0.669161,-0.44378 0.922867,-0.36066 0.293717,0.0962 0.359782,0.0497 0.214529,-0.1509 -0.274011,-0.3785 1.40313,-1.8738 1.913973,-1.70644 0.23954,0.0785 0.324025,0.008 0.23292,-0.19491 -0.08389,-0.18664 0.491342,-0.84089 1.39219,-1.58342 l 1.53515,-1.26537 -1.19252,1.21145 c -0.655885,0.6663 -1.290929,1.2115 -1.411208,1.21156 -0.120279,7e-5 -0.138613,0.11073 -0.04074,0.24593 0.11712,0.16178 0.34657,0.11552 0.67125,-0.13533 0.43218,-0.3339 0.485646,-0.33659 0.431513,-0.0217 -0.091,0.52933 -0.381705,0.70424 -1.196095,0.71967 -0.412744,0.008 -1.038266,0.27965 -1.443192,0.62717 -0.773001,0.66342 -0.716566,1.10965 0.06406,0.50654 0.436613,-0.33734 0.466993,-0.33277 0.380512,0.0572 -0.05169,0.23308 -0.117695,0.47571 -0.146677,0.53917 -0.02898,0.0635 -0.03142,0.21085 -0.0054,0.32753 0.02599,0.11668 -0.111653,0.1037 -0.305883,-0.0289 -0.465155,-0.31744 -1.402146,-0.2375 -2.020063,0.17236 -0.475992,0.31572 -0.475879,0.30895 0.0028,-0.17097 z m 19.910326,0.30157 c 0,-0.0499 0.18878,-0.15254 0.41952,-0.22813 0.24056,-0.0788 0.34906,-0.0401 0.25436,0.0907 -0.15875,0.21929 -0.67388,0.32434 -0.67388,0.13744 z m -13.598255,-0.6153 c -0.08315,-0.27144 -0.07938,-0.43223 0.0084,-0.35732 0.08775,0.0749 0.342709,0.007 0.566571,-0.15025 0.35791,-0.2519 0.364647,-0.21685 0.05584,0.29047 -0.475068,0.78045 -0.459829,0.7752 -0.630783,0.2171 z m 8.952225,0.31758 c 0.19513,-0.0667 0.42828,-0.0585 0.5181,0.0182 0.0898,0.0767 -0.0698,0.13123 -0.35479,0.12121 -0.3149,-0.0111 -0.37895,-0.0658 -0.16331,-0.13942 z m 5.10774,-0.61236 c 0.1009,-0.13938 -0.017,-0.17105 -0.29624,-0.0796 -0.29147,0.0955 -0.39835,0.0615 -0.28759,-0.0915 0.0969,-0.13392 -0.0486,-0.38386 -0.32343,-0.55543 -0.27484,-0.17156 -0.43907,-0.35993 -0.36497,-0.41859 0.0741,-0.0587 0.54107,0.22709 1.03769,0.63499 0.59737,0.49065 0.76149,0.74165 0.48494,0.74165 -0.2299,0 -0.34259,-0.10419 -0.2504,-0.23153 z m -2.89454,-0.013 c 0,-0.0499 0.18878,-0.15254 0.41951,-0.22813 0.24056,-0.0788 0.34907,-0.0401 0.25436,0.0907 -0.15874,0.21928 -0.67387,0.32434 -0.67387,0.13743 z m -7.2985,-0.38447 c 0,-0.13442 0.12164,-0.18021 0.27031,-0.10177 0.14867,0.0785 0.27032,0.18843 0.27032,0.2444 0,0.056 -0.12165,0.10176 -0.27032,0.10176 -0.14867,0 -0.27031,-0.10997 -0.27031,-0.24439 z m 0.78472,-0.25314 c -0.36434,-0.27905 -0.46076,-0.44043 -0.21958,-0.36751 0.23649,0.0715 0.60082,0.0399 0.80963,-0.0703 0.31169,-0.16446 0.28312,-0.26696 -0.15967,-0.5727 -0.29663,-0.20481 -0.35685,-0.29696 -0.13384,-0.20478 0.22301,0.0922 0.62577,0.32941 0.89502,0.52718 0.35898,0.26367 0.5417,0.28754 0.68508,0.0895 0.13673,-0.18888 0.28947,-0.14166 0.50797,0.15704 0.27204,0.37188 0.24019,0.411 -0.24621,0.30241 -0.35426,-0.0791 -0.64997,0.0146 -0.80822,0.25599 -0.32785,0.50013 -0.55018,0.4806 -1.33018,-0.11683 z m 1.25406,-0.3733 c -0.17364,-0.1584 -0.93765,0.25004 -0.80652,0.43117 0.0813,0.11236 0.31165,0.0755 0.51181,-0.0819 0.20015,-0.15739 0.33278,-0.31457 0.29471,-0.34929 z m 1.47531,0.64006 c 0.22301,-0.12304 0.52711,-0.22371 0.67579,-0.22371 0.14867,0 0.0879,0.10067 -0.13516,0.22371 -0.22301,0.12304 -0.52711,0.22371 -0.67579,0.22371 -0.14867,0 -0.0878,-0.10067 0.13516,-0.22371 z m 1.30089,0.0731 c 0.19513,-0.0667 0.42828,-0.0585 0.5181,0.0182 0.0898,0.0767 -0.0698,0.13123 -0.35478,0.12121 -0.31491,-0.0111 -0.37896,-0.0658 -0.16332,-0.13943 z m -8.788698,-0.38545 c -0.118892,-0.17178 -0.398631,-0.37128 -0.62164,-0.44333 -0.28038,-0.0906 -0.22756,-0.13663 0.171209,-0.14923 0.360412,-0.0114 0.629701,0.15488 0.718059,0.44333 0.163348,0.53328 0.04418,0.59973 -0.267628,0.14923 z m 10.596428,0.0815 c -0.21313,-0.29441 0.0701,-0.69339 0.48901,-0.68879 0.19429,0.002 0.16117,0.0936 -0.0835,0.23077 -0.36042,0.20199 -0.36042,0.25249 0,0.45448 0.24471,0.13714 0.27783,0.22864 0.0835,0.23078 -0.17707,0.002 -0.39712,-0.10032 -0.48901,-0.22724 z m -9.280548,-0.70411 c 0.158129,-0.38725 0.337667,-0.66128 0.398973,-0.60894 0.133863,0.11428 -0.376205,1.31305 -0.558694,1.31305 -0.07028,0 0.0016,-0.31685 0.159721,-0.70411 z m 1.796205,0.31569 c 0.195133,-0.0667 0.42828,-0.0585 0.518104,0.0182 0.08982,0.0767 -0.06983,0.13122 -0.354789,0.1212 -0.314901,-0.0111 -0.378954,-0.0658 -0.163315,-0.13942 z m 0.320999,-0.44964 c 0,-0.0378 0.240546,-0.17871 0.534544,-0.31303 0.4193,-0.19158 0.50421,-0.17675 0.39384,0.0688 -0.11604,0.25816 -0.928384,0.47187 -0.928384,0.24423 z m 2.605394,-0.4312 c -0.0856,-0.19039 -0.4331,-0.34775 -0.77228,-0.3497 -0.33919,-0.002 -0.79916,-0.10894 -1.02217,-0.23778 -0.2983,-0.17233 -0.19113,-0.19623 0.40547,-0.0904 1.5213,0.26985 1.75705,0.36289 1.75705,0.69343 0,0.42926 -0.17139,0.42202 -0.36807,-0.0155 z m 5.89009,0.13462 c 0.13823,-0.20241 -1.3793,-1.40208 -1.56886,-1.24024 -0.0902,0.077 -0.0131,0.30538 0.17149,0.50745 0.29689,0.32507 0.28104,0.3309 -0.1375,0.0507 -0.56927,-0.38114 -0.60112,-0.63042 -0.10146,-0.79411 0.20677,-0.0677 0.81107,0.2625 1.36244,0.74455 0.6245,0.546 0.84131,0.8663 0.5864,0.8663 -0.22245,0 -0.36308,-0.0606 -0.31251,-0.13462 z m -9.847059,-0.10993 c 0,-0.21892 0.809155,-0.32925 0.953399,-0.13 0.08787,0.12138 -0.09069,0.2207 -0.396816,0.2207 -0.30612,0 -0.556583,-0.0408 -0.556583,-0.0907 z m 5.676619,-0.18169 c 0.52035,-0.12692 1.10109,-0.34005 1.29052,-0.47362 0.18944,-0.13358 0.40666,-0.18973 0.48272,-0.1248 0.20168,0.17218 -1.63216,0.87446 -2.21957,0.84999 -0.27488,-0.0114 -0.074,-0.12465 0.44633,-0.25157 z m -4.714603,-0.31189 c -0.288594,-0.18635 -0.410236,-0.33552 -0.270315,-0.33148 0.139921,0.004 0.490524,0.15981 0.779118,0.34616 0.28859,0.18635 0.41024,0.33552 0.27031,0.33148 -0.139916,-0.004 -0.490519,-0.15981 -0.779113,-0.34616 z m 0.265945,-0.55365 c -0.08554,-0.11815 -0.05217,-0.26936 0.07415,-0.33601 0.126319,-0.0666 0.229672,0.03 0.229672,0.21483 0,0.38912 -0.08524,0.42312 -0.303824,0.12118 z m 0.664248,-0.2331 c 0,-0.11943 0.12024,-0.2806 0.26721,-0.35815 0.15324,-0.0808 0.19855,0.0118 0.10624,0.21716 -0.1797,0.3998 -0.37345,0.47294 -0.37345,0.14099 z m 1.6415,-0.3909 c -0.93844,-1.01853 -0.54506,-2.38098 0.82764,-2.86639 2.69166,-0.95184 3.7641,-4.36941 1.99314,-6.35162 -1.93729,-2.16839 -5.014173,-2.47243 -7.344405,-0.72574 -2.11466,1.5851 -2.334153,4.28877 -0.482732,5.94618 l 0.655478,0.58679 -1.578523,1.33356 -1.578522,1.33356 -0.759248,-0.76648 c -1.148086,-1.15902 -2.061251,-3.05378 -2.227896,-4.62274 -0.136117,-1.28154 -0.183541,-1.36722 -0.535421,-0.96726 -0.212342,0.24135 -0.735188,1.02287 -1.16188,1.73672 -1.033873,1.72966 -2.171842,2.07037 -3.634477,1.08815 -0.644875,-0.43306 -0.725981,-0.6227 -0.616849,-1.44234 0.177445,-1.3327 2.195812,-4.09746 4.082908,-5.59277 0.869026,-0.68861 2.398241,-1.60377 3.398255,-2.03371 3.18212,-1.36808 4.693138,-1.50971 16.106502,-1.50971 h 10.15984 l -0.0792,4.55778 -0.0792,4.55779 -3.14235,0.11539 -3.14236,0.11538 -3.31351,2.60715 c -4.55705,3.5856 -6.29897,4.255 -7.54716,2.90031 z m -6.19199,-0.015 c 0.160404,-0.16501 0.385377,-0.30001 0.499939,-0.30001 0.114563,0 0.268978,0.135 0.343144,0.30001 0.08705,0.19367 -0.09014,0.3 -0.499939,0.3 -0.490203,0 -0.568361,-0.0683 -0.343144,-0.3 z m 0.856181,-1.09973 c 0,-0.18599 0.435883,-0.67927 0.968629,-1.09617 l 0.968629,-0.75801 -0.946103,0.87822 c -0.520356,0.48302 -0.905555,0.93303 -0.855997,1.00002 0.04956,0.067 0.03942,0.16507 -0.02253,0.21796 -0.06195,0.0529 -0.112631,-0.056 -0.112631,-0.24202 z m 3.546819,-0.56117 c 0.005,-0.34992 0.22332,-0.82813 0.48417,-1.06269 0.26084,-0.23455 0.47426,-0.31057 0.47426,-0.16893 0,0.14164 -0.12164,0.32171 -0.27031,0.40016 -0.14868,0.0784 -0.27032,0.38999 -0.27032,0.69232 0,0.30233 -0.0962,0.60047 -0.21385,0.66253 -0.11763,0.0621 -0.2094,-0.17346 -0.20395,-0.52339 z m -2.389937,-0.066 c 0.07807,-0.10784 0.255181,-0.13633 0.393581,-0.0633 0.353676,0.18661 0.313852,0.25939 -0.141944,0.25939 -0.216471,0 -0.329707,-0.0882 -0.251637,-0.19608 z m 1.76329,-0.50171 c -0.02587,-0.46327 -0.149447,-0.62241 -0.415619,-0.53522 -0.464299,0.15211 -0.411426,-0.3476 0.09152,-0.86496 0.336584,-0.34624 0.403133,-0.34565 0.860296,0.008 0.27253,0.21055 0.41752,0.49055 0.3222,0.62221 -0.0966,0.13345 -0.2722,0.0111 -0.396809,-0.27644 -0.122932,-0.28371 -0.346512,-0.45093 -0.496845,-0.37161 -0.182821,0.0965 -0.177958,0.29635 0.01469,0.60366 0.158411,0.2527 0.236126,0.68775 0.172701,0.96679 -0.09191,0.40435 -0.122791,0.3735 -0.152131,-0.15199 z m 0.808187,-1.61339 c -0.22983,-0.23642 -0.1841,-0.40258 0.19048,-0.69197 0.46129,-0.3564 0.53194,-0.3454 1.10063,0.17139 0.68906,0.62619 0.37501,0.99488 -0.40682,0.47759 -0.49878,-0.33001 -0.49802,-0.33496 0.0278,-0.18017 0.48102,0.14161 0.49942,0.11592 0.16687,-0.23305 -0.28794,-0.30216 -0.45939,-0.33154 -0.7467,-0.12798 -0.28207,0.19986 -0.2982,0.34112 -0.0662,0.57978 0.16871,0.17355 0.24592,0.31554 0.17159,0.31554 -0.0743,0 -0.27127,-0.14001 -0.43762,-0.31113 z"
         id="path177"
         inkscape:connector-curvature="0" />
      <path
         style="fill:#010101;stroke-width:0.24976322"
         d="m 97.600973,148.34554 c 0.196829,-0.27981 0.416055,-0.45907 0.48717,-0.39836 0.07111,0.0607 -0.08993,0.28964 -0.357869,0.50874 -0.465466,0.38062 -0.471227,0.3757 -0.129301,-0.11038 z m -5.433436,-2.46306 c 0,-0.0479 0.212873,-0.22966 0.473051,-0.40386 0.428735,-0.28705 0.438296,-0.27889 0.102059,0.0871 -0.353131,0.38441 -0.57511,0.50666 -0.57511,0.31673 z m 9.854213,-2.32551 c -0.36493,-0.31154 -0.6635,-0.78879 -0.6635,-1.06055 0,-0.59852 0.98447,-1.83461 1.46116,-1.83461 0.39294,0 2.39918,-1.80205 2.57588,-2.31372 0.27097,-0.78464 0.31033,-2.45818 0.0704,-2.99409 -0.14205,-0.31731 -0.29119,-0.68078 -0.33142,-0.80771 -0.0402,-0.12692 -0.24584,-0.33858 -0.45694,-0.47036 -0.21109,-0.13178 -0.3448,-0.37883 -0.29713,-0.54901 0.0477,-0.17019 -0.15663,-0.33932 -0.45397,-0.37586 -0.29735,-0.0365 -1.07309,-0.23488 -1.72388,-0.44076 -1.74882,-0.55325 -3.080231,-0.36371 -4.48453,0.63844 -0.650652,0.46432 -1.244208,0.73939 -1.319013,0.61126 -0.0748,-0.12812 -0.103923,-0.10055 -0.06471,0.0613 0.03921,0.16183 -0.09155,0.62841 -0.290589,1.03684 -0.540076,1.10825 -0.454646,2.81707 0.185661,3.71367 0.30004,0.42014 0.475731,0.86031 0.390422,0.97815 -0.08531,0.11784 0.02137,0.15644 0.237063,0.0858 0.951447,-0.3117 0.569367,0.38846 -0.880312,1.61317 l -1.571938,1.328 -0.579194,-0.62862 c -0.478674,-0.51952 -0.520312,-0.69304 -0.239916,-0.99985 0.296972,-0.32494 0.283292,-0.33386 -0.109708,-0.0715 -0.499918,0.33366 -0.938393,0.008 -0.606462,-0.45072 0.112543,-0.15546 0.07483,-0.20414 -0.09055,-0.11688 -0.4082,0.21537 -1.134633,-1.48675 -1.335814,-3.12999 -0.155799,-1.27257 -0.206077,-1.36002 -0.553325,-0.9625 -0.210075,0.24049 -0.490633,0.41254 -0.623462,0.38233 -0.132829,-0.0302 -0.164392,0.11664 -0.07014,0.32632 0.124178,0.27627 0.07278,0.32924 -0.186651,0.19235 -0.234877,-0.12392 -0.293365,-0.0996 -0.170048,0.0708 0.220821,0.30503 -0.53805,1.64939 -1.15966,2.05436 -0.789502,0.51436 -2.997241,0.16046 -2.581509,-0.41381 0.08955,-0.1237 0.0017,-0.19638 -0.195165,-0.1615 -0.227201,0.0402 -0.389196,-0.21362 -0.443414,-0.69487 -0.06079,-0.53956 0.205559,-1.20523 0.923351,-2.30774 2.179998,-3.34842 5.173934,-5.49697 9.16373,-6.5762 1.822337,-0.49294 2.28912,-0.51184 12.641743,-0.51184 h 10.74955 l 0.028,4.5001 0.028,4.50009 -3.02453,0.0362 c -2.34543,0.0281 -3.13151,0.11889 -3.501,0.40435 -0.26206,0.20247 -0.57733,0.29001 -0.70061,0.19454 -0.12327,-0.0955 -0.14624,-0.0571 -0.051,0.0854 0.0975,0.1459 -0.68016,0.90026 -1.78129,1.72786 -1.07491,0.80789 -2.1077,1.64509 -2.29509,1.86044 -0.55868,0.64204 -3.45896,2.03747 -4.23471,2.03747 -0.40434,0 -1.01134,-0.24848 -1.38379,-0.56645 z m -1.30872,-4.78358 c 0.0781,-0.10784 0.25518,-0.13633 0.39358,-0.0633 0.35367,0.18661 0.31385,0.25938 -0.14195,0.25938 -0.21647,0 -0.3297,-0.0882 -0.25163,-0.19607 z"
         id="path175"
         inkscape:connector-curvature="0" />
    </g>
  </g>
</svg>
