<?xml version="1.0" encoding="utf-8"?>
<!-- Generator: Adobe Illustrator 15.1.0, SVG Export Plug-In . SVG Version: 6.00 Build 0)  -->
<!DOCTYPE svg PUBLIC "-//W3C//DTD SVG 1.1//EN" "http://www.w3.org/Graphics/SVG/1.1/DTD/svg11.dtd">
<svg version="1.1" id="Capa_1" xmlns="http://www.w3.org/2000/svg" xmlns:xlink="http://www.w3.org/1999/xlink" x="0px" y="0px"
	 width="612px" height="612px" viewBox="0 0 612 612" enable-background="new 0 0 612 612" xml:space="preserve">
<g>
	<path fill="#3A3A3A" d="M305.35,611.011c-168.73,0-306-137.266-306-306c0-168.73,137.27-306,306-306c168.725,0,306,137.27,306,306
		C611.35,473.745,474.074,611.011,305.35,611.011z M305.35,20.115c-157.091,0-284.896,127.805-284.896,284.896
		c0,157.092,127.805,284.896,284.896,284.896s284.896-127.805,284.896-284.896C590.246,147.92,462.44,20.115,305.35,20.115z"/>
</g>
<g>
	<g>
		<path fill="#3A3A3A" d="M485.491,516.386c0,0,7.348-44.649,0-56.798c-19.496-32.201-133.401-69.802-133.401-69.802
			s46.938-31.759,46.938-100.5v-89.612c0,0-22.31-55.686-93.678-55.686c-71.312,0-93.626,55.686-93.626,55.686v89.612
			c0,68.742,46.937,100.5,46.937,100.5s-113.905,37.601-133.396,69.802c-7.352,12.148,0,56.798,0,56.798"/>
	</g>
</g>
<g>
	<polygon fill="#3A3A3A" points="488.758,536.604 409.527,581.561 305.35,600.459 201.151,581.551 121.998,536.604 121.998,478.785 
		488.758,478.785 	"/>
</g>
</svg>
