<?xml version="1.0" standalone="no"?>
<!DOCTYPE svg PUBLIC "-//W3C//DTD SVG 20010904//EN"
 "http://www.w3.org/TR/2001/REC-SVG-20010904/DTD/svg10.dtd">
<svg version="1.0" xmlns="http://www.w3.org/2000/svg"
 width="338.000000pt" height="338.000000pt" viewBox="0 0 338.000000 338.000000"
 preserveAspectRatio="xMidYMid meet">
<metadata>
Created by potrace 1.15, written by Peter Selinger 2001-2017
</metadata>
<g transform="translate(0.000000,338.000000) scale(0.100000,-0.100000)"
fill="#000000" stroke="none">
<path d="M0 2617 l0 -252 379 -148 c209 -82 387 -147 396 -145 19 3 180 400
172 421 -4 10 -920 377 -941 377 -3 0 -6 -114 -6 -253z"/>
<path d="M1383 872 c-12 -2 -24 -11 -27 -20 -2 -9 -12 -50 -21 -89 -10 -40
-19 -73 -20 -73 -2 0 -8 24 -15 53 -25 121 -28 127 -60 127 -33 0 -37 -6 -16
-29 8 -9 26 -60 41 -113 25 -88 30 -98 51 -98 19 0 25 8 34 43 7 23 19 69 28
102 8 33 22 66 31 73 19 15 4 29 -26 24z"/>
<path d="M1491 859 c-24 -26 -35 -85 -26 -138 9 -55 37 -81 86 -81 34 0 42 5
59 33 34 55 22 175 -20 197 -31 17 -78 11 -99 -11z"/>
<path d="M1680 845 c0 -39 24 -50 33 -15 3 11 10 20 16 20 7 0 11 -32 11 -90
0 -75 -3 -90 -16 -90 -9 0 -14 -6 -11 -12 2 -8 22 -13 52 -13 30 0 50 5 53 13
2 6 -3 12 -12 12 -13 0 -16 13 -18 65 -1 36 -2 75 -2 88 -1 13 5 22 14 22 8 0
14 -8 14 -17 -1 -10 4 -18 12 -18 9 0 14 12 14 35 l0 35 -80 0 -80 0 0 -35z"/>
<path d="M1890 865 c0 -8 5 -15 10 -15 6 0 10 -37 10 -90 0 -53 -4 -90 -10
-90 -5 0 -10 -4 -10 -10 0 -6 32 -10 75 -10 l75 0 0 30 c0 23 -4 30 -20 30
-11 0 -19 -6 -17 -12 1 -7 -8 -14 -20 -16 -20 -3 -23 1 -23 32 0 33 2 36 30
36 23 0 30 4 30 20 0 15 -7 20 -29 20 -21 0 -30 6 -34 22 -3 12 -4 25 -1 30 9
14 44 9 44 -7 0 -8 9 -15 20 -15 16 0 20 7 20 30 l0 30 -75 0 c-60 0 -75 -3
-75 -15z"/>
<path d="M1025 399 c245 -8 1072 -8 1325 1 112 3 -169 6 -660 6 -489 0 -774
-3 -665 -7z"/>
</g>
</svg>
